<svg width="3000" height="3000" viewBox="0 0 3000 3000" fill="none" xmlns="http://www.w3.org/2000/svg">
<path opacity="0.992" fill-rule="evenodd" clip-rule="evenodd" d="M1153.05 389.184C1065.81 398.904 978.482 409.071 891.052 419.684C772.882 436.142 657.882 464.976 546.052 506.184C561.822 444.049 580.322 382.716 601.552 322.184C626.682 250.573 661.682 184.573 706.552 124.184C727.602 96.1281 751.772 70.9611 779.052 48.6841C813.502 24.3311 851.172 17.9981 892.052 29.6841C914.062 36.3541 934.062 46.6871 952.052 60.6841C967.212 73.8431 981.712 87.6761 995.552 102.184C1023.33 134.426 1049.66 167.76 1074.55 202.184C1111.68 259.799 1137.85 322.132 1153.05 389.184Z" fill="#2DEAE6"/>
<path opacity="0.992" fill-rule="evenodd" clip-rule="evenodd" d="M2454.05 506.184C2338.99 464.003 2220.66 434.836 2099.05 418.684C2014.91 408.665 1930.91 398.832 1847.05 389.184C1864.23 312.51 1895.73 242.51 1941.55 179.184C1967.17 145.812 1994.34 113.645 2023.05 82.6839C2040.87 64.5309 2061.2 49.8639 2084.05 38.6839C2140.29 13.5599 2191.29 21.2269 2237.05 61.6839C2291.07 114.195 2333.9 174.695 2365.55 243.184C2388.42 293.13 2407.76 344.464 2423.55 397.184C2434.5 433.314 2444.67 469.648 2454.05 506.184Z" fill="#2DEAE6"/>
<path opacity="0.997" fill-rule="evenodd" clip-rule="evenodd" d="M1847.05 389.184C1930.91 398.832 2014.91 408.665 2099.05 418.684C2220.66 434.836 2338.99 464.003 2454.05 506.184C2488.91 517.947 2521.24 534.447 2551.05 555.684C2556.81 560.094 2560.98 565.594 2563.55 572.184C2587.96 665.754 2606.8 760.414 2620.05 856.184C2650.38 1073.04 2649.04 1289.7 2616.05 1506.18C2616.07 1507.41 2616.4 1508.41 2617.05 1509.18C2603.64 1596.75 2585.8 1683.41 2563.55 1769.18C2560.98 1775.77 2556.81 1781.27 2551.05 1785.68C2530.15 1800.64 2507.81 1813.31 2484.05 1823.68C2432.25 1845.34 2379.25 1863.5 2325.05 1878.18C2324.9 1877.13 2325.07 1876.13 2325.55 1875.18C2349.24 1843.13 2366.58 1807.79 2377.55 1769.18C2388.66 1722.51 2375.83 1684.01 2339.05 1653.68C2334.14 1650.4 2329.47 1646.9 2325.05 1643.18C2327.44 1638.34 2329.44 1633.34 2331.05 1628.18C2332.83 1625.18 2333.83 1621.84 2334.05 1618.18C2335.19 1610.62 2336.86 1603.29 2339.05 1596.18C2340.47 1594.17 2341.14 1591.83 2341.05 1589.18C2344.47 1571.46 2348.14 1553.8 2352.05 1536.18C2353.92 1534.04 2354.59 1531.38 2354.05 1528.18C2357.37 1511.58 2360.37 1494.91 2363.05 1478.18C2363.67 1478.07 2364.17 1477.74 2364.55 1477.18C2365.05 1474.53 2365.21 1471.87 2365.05 1469.18C2365.51 1466.2 2365.85 1463.2 2366.05 1460.18C2366.77 1459.76 2367.27 1459.1 2367.55 1458.18C2368.05 1455.53 2368.21 1452.87 2368.05 1450.18C2368.38 1447.51 2368.72 1444.85 2369.05 1442.18C2370.32 1439.77 2370.98 1437.11 2371.05 1434.18C2371.07 1428.72 2371.73 1423.39 2373.05 1418.18C2374.52 1413.76 2375.19 1409.09 2375.05 1404.18C2374.81 1401.07 2375.15 1398.07 2376.05 1395.18C2377.68 1387.73 2378.68 1380.06 2379.05 1372.18C2390.11 1273.44 2393.11 1174.44 2388.05 1075.18C2388.03 1066.32 2387.37 1057.65 2386.05 1049.18C2384.95 1031.5 2383.62 1013.84 2382.05 996.184C2382.02 990.634 2381.36 985.304 2380.05 980.184C2378.82 967.824 2377.48 955.494 2376.05 943.184C2375.78 936.934 2374.78 930.934 2373.05 925.184C2372.38 919.514 2371.72 913.854 2371.05 908.184C2370.8 904.644 2370.13 901.314 2369.05 898.184C2362.81 856.884 2355.14 815.884 2346.05 775.184C2346.14 772.534 2345.47 770.194 2344.05 768.184C2344.01 764.694 2343.34 761.364 2342.05 758.184C2342.14 755.534 2341.47 753.194 2340.05 751.184C2337.77 739.764 2335.1 728.434 2332.05 717.184C2332.14 714.534 2331.47 712.194 2330.05 710.184C2328.42 703.444 2325.09 697.604 2320.05 692.684C2296.46 676.214 2271.12 662.884 2244.05 652.684C2227.56 646.984 2211.22 641.155 2195.05 635.184C2192.05 633.407 2188.71 632.407 2185.05 632.184C2183.94 632.127 2182.94 631.794 2182.05 631.184C2179.05 629.407 2175.71 628.407 2172.05 628.184C2166.23 626.98 2160.56 625.313 2155.05 623.184C2152.05 621.407 2148.71 620.407 2145.05 620.184C2144.72 620.184 2144.38 620.184 2144.05 620.184C2140.05 618.074 2135.71 616.741 2131.05 616.184C2126.52 615.967 2122.18 614.967 2118.05 613.184C2116.04 611.76 2113.7 611.094 2111.05 611.184C2107.95 610.928 2104.95 610.262 2102.05 609.184C2099.05 607.407 2095.71 606.407 2092.05 606.184C2089.99 606.167 2087.99 605.834 2086.05 605.184C2084.04 603.76 2081.7 603.094 2079.05 603.184C2059.37 599.61 2039.7 595.943 2020.05 592.184C2016.71 590.467 2013.04 589.8 2009.05 590.184C1995.35 588.443 1981.68 586.443 1968.05 584.184C1961.64 582.34 1954.97 581.34 1948.05 581.184C1943.85 581.501 1939.85 581.167 1936.05 580.184C1928.95 578.456 1921.62 577.456 1914.05 577.184C1912.38 577.184 1910.72 577.184 1909.05 577.184C1904.28 575.795 1899.28 575.128 1894.05 575.184C1893.38 575.184 1892.72 575.184 1892.05 575.184C1884.6 573.55 1876.93 572.55 1869.05 572.184C1864.28 570.795 1859.28 570.128 1854.05 570.184C1852.38 570.184 1850.72 570.184 1849.05 570.184C1844.28 568.795 1839.28 568.128 1834.05 568.184C1771.53 561.387 1708.86 556.221 1646.05 552.684C1598.54 551.927 1551.04 550.761 1503.55 549.184C1471.72 549.911 1439.88 550.577 1408.05 551.184C1382.84 550.803 1357.84 551.803 1333.05 554.184C1325.04 554.415 1317.04 554.749 1309.05 555.184C1301.48 554.841 1294.15 555.507 1287.05 557.184C1280.05 557.457 1273.05 557.79 1266.05 558.184C1259.82 558.072 1253.82 558.738 1248.05 560.184C1239.7 560.603 1231.36 561.27 1223.05 562.184C1217.48 562.06 1212.15 562.727 1207.05 564.184C1200.01 564.475 1193.01 565.142 1186.05 566.184C1180.48 566.06 1175.15 566.727 1170.05 568.184C1165.4 568.682 1160.73 569.015 1156.05 569.184C1149.17 569.642 1142.5 570.642 1136.05 572.184C1134.05 572.184 1132.05 572.184 1130.05 572.184C1123.17 572.642 1116.5 573.642 1110.05 575.184C1103.7 575.663 1097.36 576.33 1091.05 577.184C1085.82 577.128 1080.82 577.795 1076.05 579.184C1074.05 579.184 1072.05 579.184 1070.05 579.184C1062.83 579.549 1055.83 580.549 1049.05 582.184C1047.05 582.184 1045.05 582.184 1043.05 582.184C1036.82 582.556 1030.82 583.556 1025.05 585.184C1006.99 587.417 988.992 590.083 971.052 593.184C968.122 593.249 965.462 593.916 963.052 595.184C942.222 598.778 921.552 603.112 901.052 608.184C898.402 608.094 896.062 608.76 894.052 610.184C874.532 614.897 855.202 620.23 836.052 626.184C833.402 626.094 831.062 626.76 829.052 628.184C827.942 628.241 826.942 628.574 826.052 629.184C823.402 629.094 821.062 629.76 819.052 631.184C817.942 631.241 816.942 631.574 816.052 632.184C812.392 632.407 809.052 633.407 806.052 635.184C771.302 645.894 737.632 659.394 705.052 675.684C697.052 681.014 689.052 686.354 681.052 691.684C675.052 696.504 671.382 702.674 670.052 710.184C668.632 712.194 667.962 714.534 668.052 717.184C665.002 728.434 662.332 739.764 660.052 751.184C658.632 753.194 657.962 755.534 658.052 758.184C656.762 761.364 656.092 764.694 656.052 768.184C654.632 770.194 653.962 772.534 654.052 775.184C644.962 815.884 637.302 856.884 631.052 898.184C629.972 901.314 629.302 904.644 629.052 908.184C628.382 913.854 627.722 919.514 627.052 925.184C625.322 930.934 624.322 936.934 624.052 943.184C622.382 959.184 620.722 975.184 619.052 991.184C618.282 991.944 617.782 992.944 617.552 994.184C617.052 997.834 616.882 1001.5 617.052 1005.18C616.052 1019.86 615.052 1034.52 614.052 1049.18C612.732 1057.65 612.072 1066.32 612.052 1075.18C606.992 1174.44 609.992 1273.44 621.052 1372.18C621.422 1380.06 622.422 1387.73 624.052 1395.18C624.952 1398.07 625.292 1401.07 625.052 1404.18C624.912 1409.09 625.582 1413.76 627.052 1418.18C628.372 1423.39 629.032 1428.72 629.052 1434.18C629.122 1437.11 629.782 1439.77 631.052 1442.18C631.382 1444.85 631.722 1447.51 632.052 1450.18C631.892 1452.87 632.052 1455.53 632.552 1458.18C632.832 1459.1 633.332 1459.76 634.052 1460.18C634.252 1463.2 634.592 1466.2 635.052 1469.18C634.892 1471.87 635.052 1474.53 635.552 1477.18C635.932 1477.74 636.432 1478.07 637.052 1478.18C639.732 1494.91 642.732 1511.58 646.052 1528.18C645.512 1531.38 646.182 1534.04 648.052 1536.18C651.962 1553.8 655.632 1571.46 659.052 1589.18C658.962 1591.83 659.632 1594.17 661.052 1596.18C663.242 1603.29 664.912 1610.62 666.052 1618.18C666.272 1621.84 667.272 1625.18 669.052 1628.18C671.012 1638.6 676.342 1646.77 685.052 1652.68C703.912 1665.44 723.912 1676.11 745.052 1684.68C765.022 1692.73 785.362 1699.89 806.052 1706.18C808.492 1707.55 811.152 1708.55 814.052 1709.18C815.772 1709.31 817.432 1709.64 819.052 1710.18C822.052 1711.96 825.392 1712.96 829.052 1713.18C832.052 1714.96 835.392 1715.96 839.052 1716.18C856.222 1721.47 873.552 1726.14 891.052 1730.18C894.052 1731.96 897.392 1732.96 901.052 1733.18C921.552 1738.25 942.222 1742.59 963.052 1746.18C965.462 1747.45 968.122 1748.11 971.052 1748.18C988.992 1751.28 1006.99 1753.95 1025.05 1756.18C1030.82 1757.81 1036.82 1758.81 1043.05 1759.18C1047.39 1759.42 1051.73 1759.75 1056.05 1760.18C1060.49 1761.48 1065.16 1762.15 1070.05 1762.18C1074.37 1762.61 1078.71 1762.94 1083.05 1763.18C1087.14 1764.58 1091.47 1765.24 1096.05 1765.18C1098.38 1765.18 1100.72 1765.18 1103.05 1765.18C1109.83 1766.81 1116.83 1767.81 1124.05 1768.18C1130.37 1768.96 1136.7 1769.62 1143.05 1770.18C1147.17 1771.39 1151.5 1772.06 1156.05 1772.18C1160.73 1772.35 1165.4 1772.68 1170.05 1773.18C1177.15 1774.91 1184.48 1775.91 1192.05 1776.18C1197.03 1776.73 1202.03 1777.07 1207.05 1777.18C1212.15 1778.64 1217.48 1779.3 1223.05 1779.18C1231.37 1779.99 1239.7 1780.66 1248.05 1781.18C1253.82 1782.63 1259.82 1783.29 1266.05 1783.18C1273.05 1783.57 1280.05 1783.91 1287.05 1784.18C1294.15 1785.86 1301.48 1786.52 1309.05 1786.18C1321.71 1787 1334.37 1787.67 1347.05 1788.18C1367.19 1789.8 1387.53 1790.47 1408.05 1790.18C1438.05 1790.76 1468.05 1791.43 1498.05 1792.18C1547.38 1790.7 1596.71 1789.53 1646.05 1788.68C1674.11 1787.61 1702.11 1785.77 1730.05 1783.18C1737.95 1783.54 1745.62 1782.88 1753.05 1781.18C1780.05 1778.51 1807.05 1775.85 1834.05 1773.18C1839.28 1773.24 1844.28 1772.57 1849.05 1771.18C1855.69 1770.23 1862.35 1769.57 1869.05 1769.18C1874.28 1769.24 1879.28 1768.57 1884.05 1767.18C1887.36 1766.63 1890.69 1766.3 1894.05 1766.18C1899.28 1766.24 1904.28 1765.57 1909.05 1764.18C1913.03 1763.66 1917.03 1763.33 1921.05 1763.18C1926.28 1763.24 1931.28 1762.57 1936.05 1761.18C1941.87 1760.19 1947.87 1759.52 1954.05 1759.18C1958.96 1759.32 1963.63 1758.65 1968.05 1757.18C1971.36 1756.63 1974.69 1756.3 1978.05 1756.18C1984.98 1756.1 1991.65 1755.1 1998.05 1753.18C1998.38 1753.18 1998.72 1753.18 1999.05 1753.18C2006.44 1753.23 2013.44 1751.9 2020.05 1749.18C2021.05 1749.18 2022.05 1749.18 2023.05 1749.18C1962.51 1809.2 1909.68 1875.2 1864.55 1947.18C1863.5 1949.06 1862 1950.4 1860.05 1951.18C1808.13 1956.01 1756.13 1959.84 1704.05 1962.68C1637.7 1964.62 1571.37 1966.45 1505.05 1968.18C1366.04 1968.38 1227.38 1960.88 1089.05 1945.68C1013.98 1937.26 938.982 1928.26 864.052 1918.68C744.322 1900.42 628.322 1868.75 516.052 1823.68C492.292 1813.31 469.952 1800.64 449.052 1785.68C443.291 1781.27 439.125 1775.77 436.552 1769.18C414.299 1683.41 396.465 1596.75 383.052 1509.18C383.699 1508.41 384.032 1507.41 384.052 1506.18C351.059 1289.7 349.725 1073.04 380.052 856.184C393.305 760.414 412.139 665.754 436.552 572.184C439.125 565.594 443.291 560.094 449.052 555.684C478.862 534.447 511.192 517.947 546.052 506.184C657.882 464.976 772.882 436.142 891.052 419.684C978.482 409.071 1065.81 398.904 1153.05 389.184C1200.64 384.69 1248.3 381.19 1296.05 378.684C1362.4 376.744 1428.73 374.911 1495.05 373.184C1564.64 374.758 1634.3 376.592 1704.05 378.684C1751.8 381.19 1799.46 384.69 1847.05 389.184Z" fill="#FEFEFE"/>
<path fill-rule="evenodd" clip-rule="evenodd" d="M1834.05 568.184C1838.82 569.573 1843.82 570.24 1849.05 570.184C1850.72 570.184 1852.38 570.184 1854.05 570.184C1858.82 571.573 1863.82 572.24 1869.05 572.184C1876.47 574.07 1884.13 575.07 1892.05 575.184C1892.72 575.184 1893.38 575.184 1894.05 575.184C1898.82 576.573 1903.82 577.24 1909.05 577.184C1910.72 577.184 1912.38 577.184 1914.05 577.184C1921.15 578.912 1928.48 579.912 1936.05 580.184C1939.85 581.167 1943.85 581.501 1948.05 581.184C1954.46 583.028 1961.13 584.028 1968.05 584.184C1981.68 586.443 1995.35 588.443 2009.05 590.184C2012.5 591.371 2016.16 592.038 2020.05 592.184C2039.7 595.943 2059.37 599.61 2079.05 603.184C2081.06 604.608 2083.4 605.274 2086.05 605.184C2087.99 605.834 2089.99 606.167 2092.05 606.184C2095.05 607.961 2098.39 608.961 2102.05 609.184C2104.95 610.262 2107.95 610.928 2111.05 611.184C2113.06 612.608 2115.4 613.274 2118.05 613.184C2122.18 614.967 2126.52 615.967 2131.05 616.184C2135.05 618.294 2139.39 619.627 2144.05 620.184C2144.38 620.184 2144.72 620.184 2145.05 620.184C2148.05 621.961 2151.39 622.961 2155.05 623.184C2160.56 625.313 2166.23 626.98 2172.05 628.184C2175.05 629.961 2178.39 630.961 2182.05 631.184C2182.94 631.794 2183.94 632.127 2185.05 632.184C2188.05 633.961 2191.39 634.961 2195.05 635.184C2211.22 641.155 2227.56 646.984 2244.05 652.684C2271.12 662.884 2296.46 676.214 2320.05 692.684C2325.09 697.604 2328.42 703.444 2330.05 710.184C2329.96 712.834 2330.63 715.174 2332.05 717.184C2335.1 728.434 2337.77 739.764 2340.05 751.184C2339.96 753.834 2340.63 756.174 2342.05 758.184C2343.34 761.364 2344.01 764.694 2344.05 768.184C2343.96 770.834 2344.63 773.174 2346.05 775.184C2355.14 815.884 2362.81 856.884 2369.05 898.184C2368.89 900.874 2369.05 903.534 2369.55 906.184C2369.83 907.104 2370.33 907.764 2371.05 908.184C2371.72 913.854 2372.38 919.514 2373.05 925.184C2373.32 931.434 2374.32 937.434 2376.05 943.184C2377.48 955.494 2378.82 967.824 2380.05 980.184C2379.93 985.754 2380.59 991.084 2382.05 996.184C2383.62 1013.84 2384.95 1031.5 2386.05 1049.18C2385.75 1058.07 2386.41 1066.74 2388.05 1075.18C2393.11 1174.44 2390.11 1273.44 2379.05 1372.18C2377.23 1379.61 2376.23 1387.27 2376.05 1395.18C2375.15 1398.07 2374.81 1401.07 2375.05 1404.18C2373.58 1408.6 2372.91 1413.27 2373.05 1418.18C2371.73 1423.39 2371.07 1428.72 2371.05 1434.18C2369.51 1436.52 2368.84 1439.18 2369.05 1442.18C2368.72 1444.85 2368.38 1447.51 2368.05 1450.18C2366.97 1453.31 2366.3 1456.64 2366.05 1460.18C2365.85 1463.2 2365.51 1466.2 2365.05 1469.18C2363.89 1471.95 2363.23 1474.95 2363.05 1478.18C2360.37 1494.91 2357.37 1511.58 2354.05 1528.18C2352.78 1530.59 2352.12 1533.25 2352.05 1536.18C2348.14 1553.8 2344.47 1571.46 2341.05 1589.18C2339.63 1591.19 2338.96 1593.53 2339.05 1596.18C2336.86 1603.29 2335.19 1610.62 2334.05 1618.18C2332.27 1621.18 2331.27 1624.52 2331.05 1628.18C2329.44 1633.34 2327.44 1638.34 2325.05 1643.18C2264.98 1614.53 2205.98 1616.69 2148.05 1649.68C2121.45 1665.81 2096.45 1684.15 2073.05 1704.68C2056.19 1719.38 2039.52 1734.21 2023.05 1749.18C2022.05 1749.18 2021.05 1749.18 2020.05 1749.18C2012.78 1749.78 2005.78 1751.11 1999.05 1753.18C1998.72 1753.18 1998.38 1753.18 1998.05 1753.18C1991.14 1753.43 1984.48 1754.43 1978.05 1756.18C1974.69 1756.3 1971.36 1756.63 1968.05 1757.18C1963.14 1757.04 1958.47 1757.71 1954.05 1759.18C1947.87 1759.52 1941.87 1760.19 1936.05 1761.18C1930.82 1761.12 1925.82 1761.79 1921.05 1763.18C1917.03 1763.33 1913.03 1763.66 1909.05 1764.18C1903.82 1764.12 1898.82 1764.79 1894.05 1766.18C1890.69 1766.3 1887.36 1766.63 1884.05 1767.18C1878.8 1766.98 1873.8 1767.65 1869.05 1769.18C1862.35 1769.57 1855.69 1770.23 1849.05 1771.18C1843.82 1771.12 1838.82 1771.79 1834.05 1773.18C1807.05 1775.85 1780.05 1778.51 1753.05 1781.18C1745.19 1781.25 1737.52 1781.92 1730.05 1783.18C1702.11 1785.77 1674.11 1787.61 1646.05 1788.68C1596.71 1789.53 1547.38 1790.7 1498.05 1792.18C1468.05 1791.43 1438.05 1790.76 1408.05 1790.18C1387.89 1789.08 1367.56 1788.42 1347.05 1788.18C1334.37 1787.67 1321.71 1787 1309.05 1786.18C1301.9 1785.06 1294.57 1784.4 1287.05 1784.18C1280.05 1783.91 1273.05 1783.57 1266.05 1783.18C1260.28 1781.73 1254.28 1781.07 1248.05 1781.18C1239.7 1780.66 1231.37 1779.99 1223.05 1779.18C1217.95 1777.72 1212.62 1777.06 1207.05 1777.18C1202.03 1777.07 1197.03 1776.73 1192.05 1776.18C1184.96 1774.38 1177.63 1773.38 1170.05 1773.18C1165.4 1772.68 1160.73 1772.35 1156.05 1772.18C1151.98 1770.63 1147.65 1769.96 1143.05 1770.18C1136.7 1769.62 1130.37 1768.96 1124.05 1768.18C1117.33 1766.17 1110.33 1765.17 1103.05 1765.18C1100.72 1765.18 1098.38 1765.18 1096.05 1765.18C1091.98 1763.63 1087.65 1762.96 1083.05 1763.18C1078.71 1762.94 1074.37 1762.61 1070.05 1762.18C1065.63 1760.71 1060.96 1760.04 1056.05 1760.18C1051.73 1759.75 1047.39 1759.42 1043.05 1759.18C1037.32 1757.34 1031.32 1756.34 1025.05 1756.18C1006.99 1753.95 988.992 1751.28 971.052 1748.18C968.712 1746.64 966.052 1745.97 963.052 1746.18C942.222 1742.59 921.552 1738.25 901.052 1733.18C898.052 1731.4 894.712 1730.4 891.052 1730.18C873.552 1726.14 856.222 1721.47 839.052 1716.18C836.052 1714.4 832.712 1713.4 829.052 1713.18C826.052 1711.4 822.712 1710.4 819.052 1710.18C817.432 1709.64 815.772 1709.31 814.052 1709.18C811.932 1707.03 809.272 1706.03 806.052 1706.18C785.362 1699.89 765.022 1692.73 745.052 1684.68C723.912 1676.11 703.912 1665.44 685.052 1652.68C676.342 1646.77 671.012 1638.6 669.052 1628.18C668.832 1624.52 667.832 1621.18 666.052 1618.18C664.912 1610.62 663.242 1603.29 661.052 1596.18C661.142 1593.53 660.472 1591.19 659.052 1589.18C655.632 1571.46 651.962 1553.8 648.052 1536.18C647.982 1533.25 647.322 1530.59 646.052 1528.18C642.732 1511.58 639.732 1494.91 637.052 1478.18C636.872 1474.95 636.212 1471.95 635.052 1469.18C634.592 1466.2 634.252 1463.2 634.052 1460.18C633.802 1456.64 633.132 1453.31 632.052 1450.18C631.722 1447.51 631.382 1444.85 631.052 1442.18C631.262 1439.18 630.592 1436.52 629.052 1434.18C629.032 1428.72 628.372 1423.39 627.052 1418.18C627.192 1413.27 626.522 1408.6 625.052 1404.18C625.292 1401.07 624.952 1398.07 624.052 1395.18C623.872 1387.27 622.872 1379.61 621.052 1372.18C609.992 1273.44 606.992 1174.44 612.052 1075.18C613.692 1066.74 614.352 1058.07 614.052 1049.18C615.052 1034.52 616.052 1019.86 617.052 1005.18C618.072 1000.7 618.742 996.034 619.052 991.184C620.722 975.184 622.382 959.184 624.052 943.184C625.782 937.434 626.782 931.434 627.052 925.184C627.722 919.514 628.382 913.854 629.052 908.184C629.772 907.764 630.272 907.104 630.552 906.184C631.052 903.534 631.212 900.874 631.052 898.184C637.302 856.884 644.962 815.884 654.052 775.184C655.472 773.174 656.142 770.834 656.052 768.184C656.092 764.694 656.762 761.364 658.052 758.184C659.472 756.174 660.142 753.834 660.052 751.184C662.332 739.764 665.002 728.434 668.052 717.184C669.472 715.174 670.142 712.834 670.052 710.184C671.382 702.674 675.052 696.504 681.052 691.684C689.052 686.354 697.052 681.014 705.052 675.684C737.632 659.394 771.302 645.894 806.052 635.184C809.712 634.961 813.052 633.961 816.052 632.184C816.942 631.574 817.942 631.241 819.052 631.184C821.702 631.274 824.042 630.608 826.052 629.184C826.942 628.574 827.942 628.241 829.052 628.184C831.702 628.274 834.042 627.608 836.052 626.184C855.202 620.23 874.532 614.897 894.052 610.184C896.702 610.274 899.042 609.608 901.052 608.184C921.552 603.112 942.222 598.778 963.052 595.184C966.052 595.39 968.712 594.724 971.052 593.184C988.992 590.083 1006.99 587.417 1025.05 585.184C1031.32 585.028 1037.32 584.028 1043.05 582.184C1045.05 582.184 1047.05 582.184 1049.05 582.184C1056.3 582.006 1063.3 581.006 1070.05 579.184C1072.05 579.184 1074.05 579.184 1076.05 579.184C1081.3 579.382 1086.3 578.715 1091.05 577.184C1097.36 576.33 1103.7 575.663 1110.05 575.184C1117 575.245 1123.67 574.245 1130.05 572.184C1132.05 572.184 1134.05 572.184 1136.05 572.184C1143 572.245 1149.67 571.245 1156.05 569.184C1160.73 569.015 1165.4 568.682 1170.05 568.184C1175.6 568.157 1180.93 567.49 1186.05 566.184C1193.01 565.142 1200.01 564.475 1207.05 564.184C1212.62 564.308 1217.95 563.641 1223.05 562.184C1231.36 561.27 1239.7 560.603 1248.05 560.184C1254.28 560.296 1260.28 559.63 1266.05 558.184C1273.05 557.79 1280.05 557.457 1287.05 557.184C1294.57 556.967 1301.9 556.3 1309.05 555.184C1317.04 554.749 1325.04 554.415 1333.05 554.184C1358.21 553.206 1383.21 552.206 1408.05 551.184C1439.88 550.577 1471.72 549.911 1503.55 549.184C1551.04 550.761 1598.54 551.927 1646.05 552.684C1708.86 556.221 1771.53 561.387 1834.05 568.184Z" fill="#0C1620"/>
<path fill-rule="evenodd" clip-rule="evenodd" d="M1408.05 551.184C1383.21 552.206 1358.21 553.206 1333.05 554.184C1357.84 551.803 1382.84 550.803 1408.05 551.184Z" fill="#70767C"/>
<path fill-rule="evenodd" clip-rule="evenodd" d="M1309.05 555.185C1301.9 556.301 1294.57 556.968 1287.05 557.185C1294.15 555.508 1301.48 554.842 1309.05 555.185Z" fill="#636A70"/>
<path fill-rule="evenodd" clip-rule="evenodd" d="M1266.05 558.184C1260.28 559.63 1254.28 560.296 1248.05 560.184C1253.82 558.738 1259.82 558.072 1266.05 558.184Z" fill="#797F84"/>
<path fill-rule="evenodd" clip-rule="evenodd" d="M1223.05 562.185C1217.95 563.642 1212.62 564.309 1207.05 564.185C1212.15 562.728 1217.48 562.061 1223.05 562.185Z" fill="#676D73"/>
<path opacity="0.996" fill-rule="evenodd" clip-rule="evenodd" d="M1186.05 566.185C1180.93 567.491 1175.6 568.158 1170.05 568.185C1175.15 566.728 1180.48 566.061 1186.05 566.185Z" fill="#535A61"/>
<path fill-rule="evenodd" clip-rule="evenodd" d="M1834.05 568.185C1839.28 568.129 1844.28 568.796 1849.05 570.185C1843.82 570.241 1838.82 569.574 1834.05 568.185Z" fill="#909599"/>
<path opacity="0.967" fill-rule="evenodd" clip-rule="evenodd" d="M1156.05 569.184C1149.67 571.245 1143 572.245 1136.05 572.184C1142.5 570.642 1149.17 569.642 1156.05 569.184Z" fill="#414951"/>
<path fill-rule="evenodd" clip-rule="evenodd" d="M1854.05 570.183C1859.28 570.127 1864.28 570.794 1869.05 572.183C1863.82 572.239 1858.82 571.572 1854.05 570.183Z" fill="#C6C9CB"/>
<path fill-rule="evenodd" clip-rule="evenodd" d="M1869.05 572.184C1876.93 572.55 1884.6 573.55 1892.05 575.184C1884.13 575.07 1876.47 574.07 1869.05 572.184Z" fill="#93979C"/>
<path opacity="0.961" fill-rule="evenodd" clip-rule="evenodd" d="M1130.05 572.184C1123.67 574.245 1117 575.245 1110.05 575.184C1116.5 573.642 1123.17 572.642 1130.05 572.184Z" fill="#4A5259"/>
<path fill-rule="evenodd" clip-rule="evenodd" d="M1894.05 575.185C1899.28 575.129 1904.28 575.796 1909.05 577.185C1903.82 577.241 1898.82 576.574 1894.05 575.185Z" fill="#94989D"/>
<path opacity="0.969" fill-rule="evenodd" clip-rule="evenodd" d="M1091.05 577.185C1086.3 578.716 1081.3 579.383 1076.05 579.185C1080.82 577.796 1085.82 577.129 1091.05 577.185Z" fill="#3A424A"/>
<path fill-rule="evenodd" clip-rule="evenodd" d="M1914.05 577.184C1921.62 577.456 1928.95 578.456 1936.05 580.184C1928.48 579.912 1921.15 578.912 1914.05 577.184Z" fill="#B9BCBF"/>
<path opacity="0.996" fill-rule="evenodd" clip-rule="evenodd" d="M1070.05 579.184C1063.3 581.006 1056.3 582.006 1049.05 582.184C1055.83 580.549 1062.83 579.549 1070.05 579.184Z" fill="#5E656C"/>
<path fill-rule="evenodd" clip-rule="evenodd" d="M1948.05 581.184C1954.97 581.34 1961.64 582.34 1968.05 584.184C1961.13 584.028 1954.46 583.028 1948.05 581.184Z" fill="#AFB2B5"/>
<path fill-rule="evenodd" clip-rule="evenodd" d="M1043.05 582.184C1037.32 584.028 1031.32 585.028 1025.05 585.184C1030.82 583.556 1036.82 582.556 1043.05 582.184Z" fill="#93979C"/>
<path fill-rule="evenodd" clip-rule="evenodd" d="M2009.05 590.183C2013.04 589.799 2016.71 590.466 2020.05 592.183C2016.16 592.037 2012.5 591.37 2009.05 590.183Z" fill="#9A9FA3"/>
<path fill-rule="evenodd" clip-rule="evenodd" d="M971.052 593.184C968.712 594.724 966.052 595.39 963.052 595.184C965.462 593.916 968.122 593.249 971.052 593.184Z" fill="#6D747A"/>
<path fill-rule="evenodd" clip-rule="evenodd" d="M2079.05 603.184C2081.7 603.094 2084.04 603.76 2086.05 605.184C2083.4 605.274 2081.06 604.608 2079.05 603.184Z" fill="#A0A4A8"/>
<path fill-rule="evenodd" clip-rule="evenodd" d="M2092.05 606.184C2095.71 606.407 2099.05 607.407 2102.05 609.184C2098.39 608.961 2095.05 607.961 2092.05 606.184Z" fill="#A0A4A8"/>
<path opacity="0.996" fill-rule="evenodd" clip-rule="evenodd" d="M901.052 608.184C899.042 609.608 896.702 610.274 894.052 610.184C896.062 608.76 898.402 608.094 901.052 608.184Z" fill="#646A70"/>
<path fill-rule="evenodd" clip-rule="evenodd" d="M2111.05 611.184C2113.7 611.094 2116.04 611.76 2118.05 613.184C2115.4 613.274 2113.06 612.608 2111.05 611.184Z" fill="#95999E"/>
<path fill-rule="evenodd" clip-rule="evenodd" d="M2131.05 616.184C2135.71 616.741 2140.05 618.074 2144.05 620.184C2139.39 619.627 2135.05 618.294 2131.05 616.184Z" fill="#A5A8AC"/>
<path fill-rule="evenodd" clip-rule="evenodd" d="M2145.05 620.184C2148.71 620.407 2152.05 621.407 2155.05 623.184C2151.39 622.961 2148.05 621.961 2145.05 620.184Z" fill="#AFB2B5"/>
<path opacity="0.996" fill-rule="evenodd" clip-rule="evenodd" d="M836.052 626.184C834.042 627.608 831.702 628.274 829.052 628.184C831.062 626.76 833.402 626.094 836.052 626.184Z" fill="#4E555C"/>
<path fill-rule="evenodd" clip-rule="evenodd" d="M2172.05 628.184C2175.71 628.407 2179.05 629.407 2182.05 631.184C2178.39 630.961 2175.05 629.961 2172.05 628.184Z" fill="#A3A6AA"/>
<path fill-rule="evenodd" clip-rule="evenodd" d="M826.052 629.184C824.042 630.608 821.702 631.274 819.052 631.184C821.062 629.76 823.402 629.094 826.052 629.184Z" fill="#4B525A"/>
<path fill-rule="evenodd" clip-rule="evenodd" d="M2185.05 632.184C2188.71 632.407 2192.05 633.407 2195.05 635.184C2191.39 634.961 2188.05 633.961 2185.05 632.184Z" fill="#9FA3A7"/>
<path fill-rule="evenodd" clip-rule="evenodd" d="M816.052 632.184C813.052 633.961 809.712 634.961 806.052 635.184C809.052 633.407 812.392 632.407 816.052 632.184Z" fill="#515860"/>
<path opacity="0.996" fill-rule="evenodd" clip-rule="evenodd" d="M670.052 710.184C670.142 712.834 669.472 715.174 668.052 717.184C667.962 714.534 668.632 712.194 670.052 710.184Z" fill="#5E656B"/>
<path opacity="0.996" fill-rule="evenodd" clip-rule="evenodd" d="M2330.05 710.184C2331.47 712.194 2332.14 714.534 2332.05 717.184C2330.63 715.174 2329.96 712.834 2330.05 710.184Z" fill="#5E656B"/>
<path fill-rule="evenodd" clip-rule="evenodd" d="M660.052 751.184C660.142 753.834 659.472 756.174 658.052 758.184C657.962 755.534 658.632 753.194 660.052 751.184Z" fill="#5A6168"/>
<path fill-rule="evenodd" clip-rule="evenodd" d="M2340.05 751.184C2341.47 753.194 2342.14 755.534 2342.05 758.184C2340.63 756.174 2339.96 753.834 2340.05 751.184Z" fill="#5A6168"/>
<path fill-rule="evenodd" clip-rule="evenodd" d="M656.052 768.184C656.142 770.834 655.472 773.174 654.052 775.184C653.962 772.534 654.632 770.194 656.052 768.184Z" fill="#697076"/>
<path fill-rule="evenodd" clip-rule="evenodd" d="M2344.05 768.184C2345.47 770.194 2346.14 772.534 2346.05 775.184C2344.63 773.174 2343.96 770.834 2344.05 768.184Z" fill="#696F76"/>
<path opacity="0.987" fill-rule="evenodd" clip-rule="evenodd" d="M380.052 856.184C349.725 1073.04 351.059 1289.7 384.052 1506.18C384.032 1507.41 383.699 1508.41 383.052 1509.18C350.597 1499.03 324.097 1480.36 303.552 1453.18C280.313 1421.35 264.646 1386.02 256.552 1347.18C248.334 1309.79 244.501 1271.95 245.052 1233.68C244.692 1155.12 253.525 1077.62 271.552 1001.18C278.843 965.624 292.176 932.624 311.552 902.184C324.051 884.674 339.885 871.174 359.052 861.684C365.829 858.924 372.829 857.094 380.052 856.184Z" fill="#2DEAE6"/>
<path opacity="0.987" fill-rule="evenodd" clip-rule="evenodd" d="M2620.05 856.184C2636.06 858.524 2650.39 864.694 2663.05 874.684C2685.88 894.854 2702.38 919.354 2712.55 948.184C2735.25 1017.39 2748.59 1088.39 2752.55 1161.18C2755.73 1204.52 2755.73 1247.86 2752.55 1291.18C2749.2 1324.65 2742.2 1357.31 2731.55 1389.18C2718.49 1423.89 2698.66 1454.05 2672.05 1479.68C2656.04 1493.69 2637.71 1503.52 2617.05 1509.18C2616.4 1508.41 2616.07 1507.41 2616.05 1506.18C2649.04 1289.7 2650.38 1073.04 2620.05 856.184Z" fill="#2DEAE6"/>
<path opacity="0.965" fill-rule="evenodd" clip-rule="evenodd" d="M631.052 898.184C631.212 900.874 631.052 903.534 630.552 906.184C630.272 907.104 629.772 907.764 629.052 908.184C629.302 904.644 629.972 901.314 631.052 898.184Z" fill="#50575F"/>
<path opacity="0.965" fill-rule="evenodd" clip-rule="evenodd" d="M2369.05 898.184C2370.13 901.314 2370.8 904.644 2371.05 908.184C2370.33 907.764 2369.83 907.104 2369.55 906.184C2369.05 903.534 2368.89 900.874 2369.05 898.184Z" fill="#50575F"/>
<path fill-rule="evenodd" clip-rule="evenodd" d="M627.052 925.184C626.782 931.434 625.782 937.434 624.052 943.184C624.322 936.934 625.322 930.934 627.052 925.184Z" fill="#93979C"/>
<path fill-rule="evenodd" clip-rule="evenodd" d="M2373.05 925.184C2374.78 930.934 2375.78 936.934 2376.05 943.184C2374.32 937.434 2373.32 931.434 2373.05 925.184Z" fill="#93979C"/>
<path fill-rule="evenodd" clip-rule="evenodd" d="M2380.05 980.184C2381.36 985.304 2382.02 990.634 2382.05 996.184C2380.59 991.084 2379.93 985.754 2380.05 980.184Z" fill="#797F84"/>
<path fill-rule="evenodd" clip-rule="evenodd" d="M619.052 991.184C618.742 996.034 618.072 1000.7 617.052 1005.18C616.882 1001.5 617.052 997.834 617.552 994.184C617.782 992.944 618.282 991.944 619.052 991.184Z" fill="#AEB1B5"/>
<path opacity="0.98" fill-rule="evenodd" clip-rule="evenodd" d="M614.052 1049.18C614.352 1058.07 613.692 1066.74 612.052 1075.18C612.072 1066.32 612.732 1057.65 614.052 1049.18Z" fill="#373F48"/>
<path opacity="0.98" fill-rule="evenodd" clip-rule="evenodd" d="M2386.05 1049.18C2387.37 1057.65 2388.03 1066.32 2388.05 1075.18C2386.41 1066.74 2385.75 1058.07 2386.05 1049.18Z" fill="#373F48"/>
<path fill-rule="evenodd" clip-rule="evenodd" d="M2243.05 1110.18C2237.06 1108.91 2231.06 1108.91 2225.05 1110.18C2227.91 1108.67 2231.07 1108.01 2234.55 1108.18C2236.72 1108.35 2238.88 1108.51 2241.05 1108.68C2241.97 1108.96 2242.63 1109.46 2243.05 1110.18Z" fill="#24B4B4"/>
<path fill-rule="evenodd" clip-rule="evenodd" d="M772.052 1109.18C766.352 1109.05 760.682 1109.39 755.052 1110.18C758.082 1108.66 761.412 1107.99 765.052 1108.18C767.582 1108.18 769.912 1108.52 772.052 1109.18Z" fill="#23A9A9"/>
<path fill-rule="evenodd" clip-rule="evenodd" d="M772.052 1109.18C775.682 1109.96 779.012 1111.46 782.052 1113.68C838.222 1148.6 894.552 1183.26 951.052 1217.68C952.582 1220.03 954.252 1222.2 956.052 1224.18C957.712 1230.03 958.372 1236.03 958.052 1242.18C957.922 1243.9 957.592 1245.56 957.052 1247.18C955.302 1248.71 954.302 1250.71 954.052 1253.18C949.482 1262.91 942.152 1269.74 932.052 1273.68C925.722 1274.61 919.722 1273.61 914.052 1270.68C856.722 1235.35 799.382 1200.01 742.052 1164.68C733.192 1156.06 730.852 1145.89 735.052 1134.18C736.462 1133.71 737.122 1132.71 737.052 1131.18C740.012 1124.11 744.342 1117.94 750.052 1112.68C751.632 1111.59 753.292 1110.75 755.052 1110.18C760.682 1109.39 766.352 1109.05 772.052 1109.18Z" fill="#2CE8E4"/>
<path fill-rule="evenodd" clip-rule="evenodd" d="M2243.05 1110.18C2247.82 1111.77 2251.99 1114.43 2255.55 1118.18C2258.07 1122.57 2260.57 1126.9 2263.05 1131.18C2262.98 1132.71 2263.64 1133.71 2265.05 1134.18C2269.25 1145.89 2266.91 1156.06 2258.05 1164.68C2199.49 1200.79 2140.83 1236.62 2082.05 1272.18C2077.45 1273.06 2072.78 1273.4 2068.05 1273.18C2065.13 1273.22 2062.46 1272.39 2060.05 1270.68C2051.35 1262.83 2045.35 1253.33 2042.05 1242.18C2041.94 1236.81 2042.28 1231.48 2043.05 1226.18C2044.92 1224.65 2046.25 1222.65 2047.05 1220.18C2049.46 1217.79 2052.13 1215.63 2055.05 1213.68C2111.61 1178.91 2168.27 1144.41 2225.05 1110.18C2231.06 1108.91 2237.06 1108.91 2243.05 1110.18Z" fill="#2CE8E4"/>
<path fill-rule="evenodd" clip-rule="evenodd" d="M737.052 1131.18C737.122 1132.71 736.462 1133.71 735.052 1134.18C734.982 1132.65 735.642 1131.65 737.052 1131.18Z" fill="#1C7A7E"/>
<path fill-rule="evenodd" clip-rule="evenodd" d="M2263.05 1131.18C2264.46 1131.65 2265.12 1132.65 2265.05 1134.18C2263.64 1133.71 2262.98 1132.71 2263.05 1131.18Z" fill="#1C7A7E"/>
<path fill-rule="evenodd" clip-rule="evenodd" d="M1383.05 1299.18C1383.8 1304.14 1384.14 1309.14 1384.05 1314.18C1380.98 1324.08 1374.32 1329.91 1364.05 1331.68C1338.34 1332.49 1312.67 1332.33 1287.05 1331.18C1286.58 1329.77 1285.58 1329.11 1284.05 1329.18C1259.04 1307.99 1234.37 1286.33 1210.05 1264.18C1186.09 1286.15 1161.76 1307.65 1137.05 1328.68C1134.83 1329.96 1132.5 1330.96 1130.05 1331.68C1106.1 1333.31 1082.1 1333.64 1058.05 1332.68C1039.59 1328.26 1032.42 1316.76 1036.55 1298.18C1042.31 1290.42 1048.81 1283.25 1056.05 1276.68C1099.9 1238.58 1143.57 1200.25 1187.05 1161.68C1195.87 1153.56 1206.2 1150.89 1218.05 1153.68C1222.09 1154.58 1225.75 1156.25 1229.05 1158.68C1278.51 1201.81 1327.68 1245.31 1376.55 1289.18C1379.36 1292.14 1381.53 1295.48 1383.05 1299.18Z" fill="#2CE9E5"/>
<path fill-rule="evenodd" clip-rule="evenodd" d="M1963.05 1299.18C1963.8 1304.14 1964.14 1309.14 1964.05 1314.18C1960.98 1324.08 1954.32 1329.91 1944.05 1331.68C1918.34 1332.49 1892.67 1332.33 1867.05 1331.18C1866.58 1329.77 1865.58 1329.11 1864.05 1329.18C1839.04 1307.99 1814.37 1286.33 1790.05 1264.18C1766.09 1286.15 1741.76 1307.65 1717.05 1328.68C1714.83 1329.96 1712.5 1330.96 1710.05 1331.68C1686.1 1333.31 1662.1 1333.64 1638.05 1332.68C1619.59 1328.26 1612.42 1316.76 1616.55 1298.18C1622.31 1290.42 1628.81 1283.25 1636.05 1276.68C1679.9 1238.58 1723.57 1200.25 1767.05 1161.68C1775.87 1153.56 1786.2 1150.89 1798.05 1153.68C1802.09 1154.58 1805.75 1156.25 1809.05 1158.68C1858.51 1201.81 1907.68 1245.31 1956.55 1289.18C1959.36 1292.14 1961.53 1295.48 1963.05 1299.18Z" fill="#2CE9E5"/>
<path fill-rule="evenodd" clip-rule="evenodd" d="M2047.05 1220.18C2046.25 1222.65 2044.92 1224.65 2043.05 1226.18C2043.39 1223.48 2044.73 1221.48 2047.05 1220.18Z" fill="#22A1A2"/>
<path fill-rule="evenodd" clip-rule="evenodd" d="M956.052 1224.18C957.112 1225.28 957.942 1226.61 958.552 1228.18C959.372 1233.03 959.202 1237.7 958.052 1242.18C958.372 1236.03 957.712 1230.03 956.052 1224.18Z" fill="#25B5B5"/>
<path fill-rule="evenodd" clip-rule="evenodd" d="M2043.05 1226.18C2042.28 1231.48 2041.94 1236.81 2042.05 1242.18C2040.9 1237.7 2040.73 1233.03 2041.55 1228.18C2041.83 1227.26 2042.33 1226.6 2043.05 1226.18Z" fill="#24B1B0"/>
<path fill-rule="evenodd" clip-rule="evenodd" d="M957.052 1247.18C956.802 1249.65 955.802 1251.65 954.052 1253.18C954.302 1250.71 955.302 1248.71 957.052 1247.18Z" fill="#1C7579"/>
<path fill-rule="evenodd" clip-rule="evenodd" d="M2082.05 1272.18C2081.94 1272.8 2081.61 1273.3 2081.05 1273.68C2076.53 1274.49 2072.2 1274.33 2068.05 1273.18C2072.78 1273.4 2077.45 1273.06 2082.05 1272.18Z" fill="#1B7477"/>
<path fill-rule="evenodd" clip-rule="evenodd" d="M1383.05 1299.18C1384.54 1301.87 1385.21 1304.87 1385.05 1308.18C1385.05 1310.38 1384.71 1312.38 1384.05 1314.18C1384.14 1309.14 1383.8 1304.14 1383.05 1299.18Z" fill="#22A3A4"/>
<path fill-rule="evenodd" clip-rule="evenodd" d="M1963.05 1299.18C1964.54 1301.87 1965.21 1304.87 1965.05 1308.18C1965.05 1310.38 1964.71 1312.38 1964.05 1314.18C1964.14 1309.14 1963.8 1304.14 1963.05 1299.18Z" fill="#22A3A4"/>
<path fill-rule="evenodd" clip-rule="evenodd" d="M1284.05 1329.18C1285.58 1329.11 1286.58 1329.77 1287.05 1331.18C1285.52 1331.25 1284.52 1330.59 1284.05 1329.18Z" fill="#1C7E81"/>
<path fill-rule="evenodd" clip-rule="evenodd" d="M1864.05 1329.18C1865.58 1329.11 1866.58 1329.77 1867.05 1331.18C1865.52 1331.25 1864.52 1330.59 1864.05 1329.18Z" fill="#1C7E81"/>
<path fill-rule="evenodd" clip-rule="evenodd" d="M932.052 1337.18C927.322 1336.96 922.652 1337.3 918.052 1338.18C918.162 1337.56 918.492 1337.06 919.052 1336.68C923.572 1335.87 927.902 1336.03 932.052 1337.18Z" fill="#1B787C"/>
<path fill-rule="evenodd" clip-rule="evenodd" d="M932.052 1337.18C940.012 1339.28 946.172 1343.95 950.552 1351.18C956.782 1359.44 959.622 1368.77 959.052 1379.18C957.482 1381.19 956.482 1383.52 956.052 1386.18C952.532 1390.86 948.202 1394.7 943.052 1397.68C887.162 1432.12 831.162 1466.29 775.052 1500.18C770.192 1501.72 765.192 1502.39 760.052 1502.18C753.912 1500.52 748.742 1497.18 744.552 1492.18C741.552 1487.18 738.552 1482.18 735.552 1477.18C732.132 1468.97 732.302 1460.97 736.052 1453.18C737.462 1452.71 738.122 1451.71 738.052 1450.18C741.912 1446.16 746.242 1442.66 751.052 1439.68C806.442 1405.32 862.112 1371.49 918.052 1338.18C922.652 1337.3 927.322 1336.96 932.052 1337.18Z" fill="#2CE8E4"/>
<path fill-rule="evenodd" clip-rule="evenodd" d="M2044.05 1386.18C2043.62 1383.52 2042.62 1381.19 2041.05 1379.18C2040.62 1368.71 2043.62 1359.37 2050.05 1351.18C2052.18 1349.59 2053.85 1347.59 2055.05 1345.18C2059.15 1339.21 2064.98 1336.21 2072.55 1336.18C2075.76 1336.42 2078.92 1336.92 2082.05 1337.68C2140.72 1373.68 2199.38 1409.68 2258.05 1445.68C2266.94 1453.41 2269.44 1462.91 2265.55 1474.18C2261.89 1483.33 2256.39 1491.16 2249.05 1497.68C2241.48 1502.22 2233.48 1503.22 2225.05 1500.68C2167.55 1465.1 2109.88 1429.76 2052.05 1394.68C2049.18 1391.98 2046.51 1389.14 2044.05 1386.18Z" fill="#2CE8E4"/>
<path fill-rule="evenodd" clip-rule="evenodd" d="M2055.05 1345.18C2053.85 1347.59 2052.18 1349.59 2050.05 1351.18C2050.8 1348.32 2052.46 1346.32 2055.05 1345.18Z" fill="#209799"/>
<path fill-rule="evenodd" clip-rule="evenodd" d="M621.052 1372.18C622.872 1379.61 623.872 1387.27 624.052 1395.18C622.422 1387.73 621.422 1380.06 621.052 1372.18Z" fill="#989DA1"/>
<path fill-rule="evenodd" clip-rule="evenodd" d="M2379.05 1372.18C2378.68 1380.06 2377.68 1387.73 2376.05 1395.18C2376.23 1387.27 2377.23 1379.61 2379.05 1372.18Z" fill="#989DA1"/>
<path fill-rule="evenodd" clip-rule="evenodd" d="M959.052 1379.18C959.382 1382.17 958.382 1384.5 956.052 1386.18C956.482 1383.52 957.482 1381.19 959.052 1379.18Z" fill="#164E55"/>
<path fill-rule="evenodd" clip-rule="evenodd" d="M2041.05 1379.18C2042.62 1381.19 2043.62 1383.52 2044.05 1386.18C2041.72 1384.5 2040.72 1382.17 2041.05 1379.18Z" fill="#164E55"/>
<path fill-rule="evenodd" clip-rule="evenodd" d="M625.052 1404.18C626.522 1408.6 627.192 1413.27 627.052 1418.18C625.582 1413.76 624.912 1409.09 625.052 1404.18Z" fill="#ACB0B3"/>
<path fill-rule="evenodd" clip-rule="evenodd" d="M2375.05 1404.18C2375.19 1409.09 2374.52 1413.76 2373.05 1418.18C2372.91 1413.27 2373.58 1408.6 2375.05 1404.18Z" fill="#ACB0B3"/>
<path fill-rule="evenodd" clip-rule="evenodd" d="M629.052 1434.18C630.592 1436.52 631.262 1439.18 631.052 1442.18C629.782 1439.77 629.122 1437.11 629.052 1434.18Z" fill="#898E92"/>
<path fill-rule="evenodd" clip-rule="evenodd" d="M2371.05 1434.18C2370.98 1437.11 2370.32 1439.77 2369.05 1442.18C2368.84 1439.18 2369.51 1436.52 2371.05 1434.18Z" fill="#898E93"/>
<path fill-rule="evenodd" clip-rule="evenodd" d="M738.052 1450.18C738.122 1451.71 737.462 1452.71 736.052 1453.18C735.982 1451.65 736.642 1450.65 738.052 1450.18Z" fill="#1D8084"/>
<path fill-rule="evenodd" clip-rule="evenodd" d="M632.052 1450.18C633.132 1453.31 633.802 1456.64 634.052 1460.18C633.332 1459.76 632.832 1459.1 632.552 1458.18C632.052 1455.53 631.892 1452.87 632.052 1450.18Z" fill="#959A9E"/>
<path fill-rule="evenodd" clip-rule="evenodd" d="M2368.05 1450.18C2368.21 1452.87 2368.05 1455.53 2367.55 1458.18C2367.27 1459.1 2366.77 1459.76 2366.05 1460.18C2366.3 1456.64 2366.97 1453.31 2368.05 1450.18Z" fill="#959A9E"/>
<path fill-rule="evenodd" clip-rule="evenodd" d="M635.052 1469.18C636.212 1471.95 636.872 1474.95 637.052 1478.18C636.432 1478.07 635.932 1477.74 635.552 1477.18C635.052 1474.53 634.892 1471.87 635.052 1469.18Z" fill="#A8ACB0"/>
<path fill-rule="evenodd" clip-rule="evenodd" d="M2365.05 1469.18C2365.21 1471.87 2365.05 1474.53 2364.55 1477.18C2364.17 1477.74 2363.67 1478.07 2363.05 1478.18C2363.23 1474.95 2363.89 1471.95 2365.05 1469.18Z" fill="#A8ACB0"/>
<path fill-rule="evenodd" clip-rule="evenodd" d="M775.052 1500.18C773.872 1501.75 772.202 1502.58 770.052 1502.68C766.522 1503.49 763.192 1503.32 760.052 1502.18C765.192 1502.39 770.192 1501.72 775.052 1500.18Z" fill="#154E55"/>
<path fill-rule="evenodd" clip-rule="evenodd" d="M646.052 1528.18C647.322 1530.59 647.982 1533.25 648.052 1536.18C646.182 1534.04 645.512 1531.38 646.052 1528.18Z" fill="#AFB2B5"/>
<path fill-rule="evenodd" clip-rule="evenodd" d="M2354.05 1528.18C2354.59 1531.38 2353.92 1534.04 2352.05 1536.18C2352.12 1533.25 2352.78 1530.59 2354.05 1528.18Z" fill="#AFB2B5"/>
<path fill-rule="evenodd" clip-rule="evenodd" d="M659.052 1589.18C660.472 1591.19 661.142 1593.53 661.052 1596.18C659.632 1594.17 658.962 1591.83 659.052 1589.18Z" fill="#AAAEB1"/>
<path fill-rule="evenodd" clip-rule="evenodd" d="M2341.05 1589.18C2341.14 1591.83 2340.47 1594.17 2339.05 1596.18C2338.96 1593.53 2339.63 1591.19 2341.05 1589.18Z" fill="#AAAEB1"/>
<path fill-rule="evenodd" clip-rule="evenodd" d="M666.052 1618.18C667.832 1621.18 668.832 1624.52 669.052 1628.18C667.272 1625.18 666.272 1621.84 666.052 1618.18Z" fill="#B1B4B7"/>
<path opacity="0.994" fill-rule="evenodd" clip-rule="evenodd" d="M2325.05 1643.18C2329.47 1646.9 2334.14 1650.4 2339.05 1653.68C2375.83 1684.01 2388.66 1722.51 2377.55 1769.18C2366.58 1807.79 2349.24 1843.13 2325.55 1875.18C2325.07 1876.13 2324.9 1877.13 2325.05 1878.18C2289.8 1923.61 2247.8 1961.44 2199.05 1991.68C2124.16 2038.11 2043.49 2070.78 1957.05 2089.68C1912.46 2099.5 1867.46 2106.83 1822.05 2111.68C1796.22 2113.85 1784.39 2102.02 1786.55 2076.18C1810.05 2033.83 1834.55 1992.17 1860.05 1951.18C1862 1950.4 1863.5 1949.06 1864.55 1947.18C1909.68 1875.2 1962.51 1809.2 2023.05 1749.18C2039.52 1734.21 2056.19 1719.38 2073.05 1704.68C2096.45 1684.15 2121.45 1665.81 2148.05 1649.68C2205.98 1616.69 2264.98 1614.53 2325.05 1643.18Z" fill="#44DFDE"/>
<path fill-rule="evenodd" clip-rule="evenodd" d="M2334.05 1618.18C2333.83 1621.84 2332.83 1625.18 2331.05 1628.18C2331.27 1624.52 2332.27 1621.18 2334.05 1618.18Z" fill="#B1B4B7"/>
<path fill-rule="evenodd" clip-rule="evenodd" d="M806.052 1706.18C809.272 1706.03 811.932 1707.03 814.052 1709.18C811.152 1708.55 808.492 1707.55 806.052 1706.18Z" fill="#5B6269"/>
<path fill-rule="evenodd" clip-rule="evenodd" d="M819.052 1710.18C822.712 1710.4 826.052 1711.4 829.052 1713.18C825.392 1712.96 822.052 1711.96 819.052 1710.18Z" fill="#585F66"/>
<path opacity="0.996" fill-rule="evenodd" clip-rule="evenodd" d="M829.052 1713.18C832.712 1713.4 836.052 1714.4 839.052 1716.18C835.392 1715.96 832.052 1714.96 829.052 1713.18Z" fill="#5B6268"/>
<path opacity="0.996" fill-rule="evenodd" clip-rule="evenodd" d="M891.052 1730.18C894.712 1730.4 898.052 1731.4 901.052 1733.18C897.392 1732.96 894.052 1731.96 891.052 1730.18Z" fill="#575D64"/>
<path fill-rule="evenodd" clip-rule="evenodd" d="M963.052 1746.18C966.052 1745.97 968.712 1746.64 971.052 1748.18C968.122 1748.11 965.462 1747.45 963.052 1746.18Z" fill="#7E8388"/>
<path fill-rule="evenodd" clip-rule="evenodd" d="M2020.05 1749.18C2013.44 1751.9 2006.44 1753.23 1999.05 1753.18C2005.78 1751.11 2012.78 1749.78 2020.05 1749.18Z" fill="#C2C4C7"/>
<path fill-rule="evenodd" clip-rule="evenodd" d="M1998.05 1753.18C1991.65 1755.1 1984.98 1756.1 1978.05 1756.18C1984.48 1754.43 1991.14 1753.43 1998.05 1753.18Z" fill="#BDC0C3"/>
<path fill-rule="evenodd" clip-rule="evenodd" d="M1025.05 1756.18C1031.32 1756.34 1037.32 1757.34 1043.05 1759.18C1036.82 1758.81 1030.82 1757.81 1025.05 1756.18Z" fill="#93979C"/>
<path fill-rule="evenodd" clip-rule="evenodd" d="M1968.05 1757.18C1963.63 1758.65 1958.96 1759.32 1954.05 1759.18C1958.47 1757.71 1963.14 1757.04 1968.05 1757.18Z" fill="#A2A6AA"/>
<path fill-rule="evenodd" clip-rule="evenodd" d="M1056.05 1760.18C1060.96 1760.04 1065.63 1760.71 1070.05 1762.18C1065.16 1762.15 1060.49 1761.48 1056.05 1760.18Z" fill="#7D8288"/>
<path fill-rule="evenodd" clip-rule="evenodd" d="M1936.05 1761.18C1931.28 1762.57 1926.28 1763.24 1921.05 1763.18C1925.82 1761.79 1930.82 1761.12 1936.05 1761.18Z" fill="#AEB2B5"/>
<path opacity="0.996" fill-rule="evenodd" clip-rule="evenodd" d="M1083.05 1763.18C1087.65 1762.96 1091.98 1763.63 1096.05 1765.18C1091.47 1765.24 1087.14 1764.58 1083.05 1763.18Z" fill="#6E747A"/>
<path opacity="0.98" fill-rule="evenodd" clip-rule="evenodd" d="M1103.05 1765.18C1110.33 1765.17 1117.33 1766.17 1124.05 1768.18C1116.83 1767.81 1109.83 1766.81 1103.05 1765.18Z" fill="#3E464E"/>
<path fill-rule="evenodd" clip-rule="evenodd" d="M1909.05 1764.18C1904.28 1765.57 1899.28 1766.24 1894.05 1766.18C1898.82 1764.79 1903.82 1764.12 1909.05 1764.18Z" fill="#9EA2A6"/>
<path fill-rule="evenodd" clip-rule="evenodd" d="M1884.05 1767.18C1879.28 1768.57 1874.28 1769.24 1869.05 1769.18C1873.8 1767.65 1878.8 1766.98 1884.05 1767.18Z" fill="#A6A9AD"/>
<path opacity="0.996" fill-rule="evenodd" clip-rule="evenodd" d="M1143.05 1770.18C1147.65 1769.96 1151.98 1770.63 1156.05 1772.18C1151.5 1772.06 1147.17 1771.39 1143.05 1770.18Z" fill="#646B71"/>
<path fill-rule="evenodd" clip-rule="evenodd" d="M1849.05 1771.18C1844.28 1772.57 1839.28 1773.24 1834.05 1773.18C1838.82 1771.79 1843.82 1771.12 1849.05 1771.18Z" fill="#9B9FA3"/>
<path fill-rule="evenodd" clip-rule="evenodd" d="M1170.05 1773.18C1177.63 1773.38 1184.96 1774.38 1192.05 1776.18C1184.48 1775.91 1177.15 1774.91 1170.05 1773.18Z" fill="#6C7278"/>
<path fill-rule="evenodd" clip-rule="evenodd" d="M1207.05 1777.18C1212.62 1777.06 1217.95 1777.72 1223.05 1779.18C1217.48 1779.3 1212.15 1778.64 1207.05 1777.18Z" fill="#777D82"/>
<path fill-rule="evenodd" clip-rule="evenodd" d="M1248.05 1781.18C1254.28 1781.07 1260.28 1781.73 1266.05 1783.18C1259.82 1783.29 1253.82 1782.63 1248.05 1781.18Z" fill="#898E92"/>
<path fill-rule="evenodd" clip-rule="evenodd" d="M1753.05 1781.18C1745.62 1782.88 1737.95 1783.54 1730.05 1783.18C1737.52 1781.92 1745.19 1781.25 1753.05 1781.18Z" fill="#ACAFB3"/>
<path fill-rule="evenodd" clip-rule="evenodd" d="M1287.05 1784.18C1294.57 1784.4 1301.9 1785.06 1309.05 1786.18C1301.48 1786.52 1294.15 1785.86 1287.05 1784.18Z" fill="#787E83"/>
<path fill-rule="evenodd" clip-rule="evenodd" d="M1347.05 1788.18C1367.56 1788.42 1387.89 1789.08 1408.05 1790.18C1387.53 1790.47 1367.19 1789.8 1347.05 1788.18Z" fill="#84898F"/>
<path opacity="0.988" fill-rule="evenodd" clip-rule="evenodd" d="M1201.05 2005.18C1226.85 2003.48 1238.69 2015.48 1236.55 2041.18C1196.98 2114.69 1152.65 2185.02 1103.55 2252.18C1045.97 2329.09 978.472 2395.93 901.052 2452.68C878.772 2468.65 854.442 2480.65 828.052 2488.68C792.092 2498.09 756.422 2497.09 721.052 2485.68C683.122 2472.09 657.622 2446.25 644.552 2408.18C638.342 2377.63 641.342 2347.96 653.552 2319.18C670.272 2276.7 694.272 2239.03 725.552 2206.18C778.162 2153.11 838.662 2111.28 907.052 2080.68C978.732 2048.84 1053.4 2027.01 1131.05 2015.18C1154.49 2011.55 1177.82 2008.21 1201.05 2005.18Z" fill="#44E0DE"/>
<path opacity="0.995" fill-rule="evenodd" clip-rule="evenodd" d="M1290.05 2007.18C1360.04 2009.1 1430.04 2010.76 1500.05 2012.18C1570.06 2010.76 1640.06 2009.1 1710.05 2007.18C1710.38 2009.99 1711.21 2012.66 1712.55 2015.18C1759.01 2090.78 1796.35 2170.78 1824.55 2255.18C1857.58 2355.41 1869.58 2458.08 1860.55 2563.18C1851.25 2662.82 1815.58 2751.48 1753.55 2829.18C1716.47 2876.6 1672.31 2915.77 1621.05 2946.68C1573.43 2971.94 1522.76 2981.27 1469.05 2974.68C1424.73 2969.8 1384.73 2954.13 1349.05 2927.68C1206.45 2819.81 1135.45 2675.81 1136.05 2495.68C1138.14 2383.15 1161.64 2275.32 1206.55 2172.18C1230.16 2117.96 1257.16 2065.63 1287.55 2015.18C1288.89 2012.66 1289.72 2009.99 1290.05 2007.18Z" fill="#FEFEFE"/>
<path opacity="0.091" fill-rule="evenodd" clip-rule="evenodd" d="M1496.05 2009.18C1498.52 2008.05 1501.18 2007.88 1504.05 2008.68C1501.4 2009.18 1498.74 2009.34 1496.05 2009.18Z" fill="#FEFFFE"/>
<path fill-rule="evenodd" clip-rule="evenodd" d="M1388.05 2165.19C1394.72 2165.02 1401.39 2165.19 1408.05 2165.69C1408.55 2166.19 1409.05 2166.69 1409.55 2167.19C1410.22 2200.85 1410.22 2234.51 1409.55 2268.18C1404.93 2282.14 1395.43 2290.31 1381.05 2292.68C1351.96 2293.66 1322.96 2293.33 1294.05 2291.68C1293.55 2291.18 1293.05 2290.68 1292.55 2290.18C1291.88 2283.85 1291.88 2277.51 1292.55 2271.18C1293.38 2270.35 1294.22 2269.51 1295.05 2268.68C1323.05 2268.35 1351.05 2268.01 1379.05 2267.68C1380.65 2267.41 1382.15 2266.91 1383.55 2266.18C1384.87 2233.6 1385.54 2200.94 1385.55 2168.19C1386.59 2167.32 1387.43 2166.32 1388.05 2165.19Z" fill="#4FE1E0"/>
<path fill-rule="evenodd" clip-rule="evenodd" d="M1459.05 2165.19C1487.72 2165.02 1516.39 2165.19 1545.05 2165.69C1545.55 2166.19 1546.05 2166.69 1546.55 2167.19C1547.22 2173.86 1547.22 2180.52 1546.55 2187.19C1546.05 2187.69 1545.55 2188.19 1545.05 2188.69C1518.05 2189.02 1491.05 2189.36 1464.05 2189.69C1458 2191.76 1455 2196.1 1455.05 2202.69C1454.77 2208.47 1457.11 2212.81 1462.05 2215.69C1484.38 2216.02 1506.72 2216.36 1529.05 2216.69C1554.6 2226.62 1563.43 2244.78 1555.55 2271.18C1549.77 2280.97 1541.6 2287.8 1531.05 2291.68C1529.05 2292.01 1527.05 2292.35 1525.05 2292.68C1495.05 2293.35 1465.05 2293.35 1435.05 2292.68C1433.88 2291.51 1432.72 2290.35 1431.55 2289.18C1430.88 2283.18 1430.88 2277.18 1431.55 2271.18C1432.38 2270.35 1433.22 2269.51 1434.05 2268.68C1463.72 2268.35 1493.38 2268.01 1523.05 2267.68C1527.98 2267.42 1531.14 2264.92 1532.55 2260.18C1533.22 2256.18 1533.22 2252.18 1532.55 2248.18C1531.38 2245.68 1529.55 2243.85 1527.05 2242.68C1505.72 2242.35 1484.38 2242.01 1463.05 2241.68C1434.93 2232.94 1425.1 2214.45 1433.55 2186.19C1435.53 2181.73 1438.36 2177.9 1442.05 2174.69C1447.3 2170.67 1452.97 2167.51 1459.05 2165.19Z" fill="#4DE1E0"/>
<path fill-rule="evenodd" clip-rule="evenodd" d="M1601.05 2165.19C1624.39 2165.02 1647.72 2165.19 1671.05 2165.69C1689.37 2171.68 1700.21 2184.18 1703.55 2203.19C1707.84 2227.76 1699.34 2246.25 1678.05 2258.68C1674.1 2259.89 1670.1 2260.89 1666.05 2261.68C1647.05 2262.35 1628.05 2262.35 1609.05 2261.68C1608.55 2261.18 1608.05 2260.68 1607.55 2260.18C1606.88 2253.18 1606.88 2246.18 1607.55 2239.18C1608.05 2238.68 1608.55 2238.18 1609.05 2237.68C1627.72 2237.35 1646.38 2237.01 1665.05 2236.68C1672.65 2234.74 1677.15 2229.92 1678.55 2222.19C1679.91 2213.14 1678.91 2204.47 1675.55 2196.19C1672.53 2192.6 1668.7 2190.43 1664.05 2189.69C1643.63 2188.71 1623.29 2189.05 1603.05 2190.69C1602.55 2191.19 1602.05 2191.69 1601.55 2192.19C1601.22 2224.52 1600.88 2256.85 1600.55 2289.18C1599.38 2290.35 1598.22 2291.51 1597.05 2292.68C1591.05 2293.35 1585.05 2293.35 1579.05 2292.68C1578.22 2291.85 1577.38 2291.01 1576.55 2290.18C1575.88 2256.18 1575.88 2222.19 1576.55 2188.19C1581.12 2176.45 1589.28 2168.78 1601.05 2165.19Z" fill="#4DE1E0"/>
</svg>
