<svg width="3000" height="3000" viewBox="0 0 3000 3000" fill="none" xmlns="http://www.w3.org/2000/svg">
<path opacity="0.992" fill-rule="evenodd" clip-rule="evenodd" d="M1153.05 893.184C1065.81 902.904 978.482 913.074 891.052 923.684C772.882 940.144 657.882 968.974 546.052 1010.18C561.822 948.044 580.322 886.714 601.552 826.184C626.682 754.574 661.682 688.574 706.552 628.184C727.602 600.124 751.772 574.964 779.052 552.684C813.502 528.331 851.172 521.998 892.052 533.684C914.062 540.354 934.062 550.687 952.052 564.684C967.212 577.844 981.712 591.674 995.552 606.184C1023.33 638.424 1049.66 671.764 1074.55 706.184C1111.68 763.804 1137.85 826.134 1153.05 893.184Z" fill="#2DEAE6"/>
<path opacity="0.992" fill-rule="evenodd" clip-rule="evenodd" d="M2454.05 1010.18C2338.99 968.003 2220.66 938.833 2099.05 922.683C2014.91 912.663 1930.91 902.833 1847.05 893.183C1864.23 816.513 1895.73 746.513 1941.55 683.183C1967.17 649.813 1994.34 617.643 2023.05 586.683C2040.87 568.53 2061.2 553.863 2084.05 542.683C2140.29 517.559 2191.29 525.226 2237.05 565.683C2291.07 618.193 2333.9 678.693 2365.55 747.183C2388.42 797.133 2407.76 848.463 2423.55 901.183C2434.5 937.313 2444.67 973.643 2454.05 1010.18Z" fill="#2DEAE6"/>
<path opacity="0.997" fill-rule="evenodd" clip-rule="evenodd" d="M1847.05 893.184C1930.91 902.834 2014.91 912.664 2099.05 922.684C2220.66 938.834 2338.99 968.004 2454.05 1010.18C2488.91 1021.94 2521.24 1038.44 2551.05 1059.68C2556.81 1064.09 2560.98 1069.59 2563.55 1076.18C2587.96 1169.75 2606.8 1264.41 2620.05 1360.18C2650.38 1577.04 2649.04 1793.7 2616.05 2010.18C2616.07 2011.41 2616.4 2012.41 2617.05 2013.18C2603.64 2100.75 2585.8 2187.41 2563.55 2273.18C2560.98 2279.77 2556.81 2285.27 2551.05 2289.68C2524.48 2308.63 2495.82 2323.97 2465.05 2335.68C2351.9 2379.14 2235.23 2409.14 2115.05 2425.68C1995.7 2441.35 1876.03 2454.02 1756.05 2463.68C1729.74 2465.51 1703.41 2466.85 1677.05 2467.68C1619.7 2469.01 1562.36 2470.51 1505.05 2472.18C1366.04 2472.38 1227.38 2464.88 1089.05 2449.68C1021.01 2441.97 953.012 2433.97 885.052 2425.68C764.872 2409.14 648.202 2379.14 535.052 2335.68C504.282 2323.97 475.622 2308.63 449.052 2289.68C443.291 2285.27 439.125 2279.77 436.552 2273.18C414.299 2187.41 396.465 2100.75 383.052 2013.18C383.699 2012.41 384.032 2011.41 384.052 2010.18C351.059 1793.7 349.725 1577.04 380.052 1360.18C393.305 1264.41 412.139 1169.75 436.552 1076.18C439.125 1069.59 443.291 1064.09 449.052 1059.68C478.862 1038.44 511.192 1021.94 546.052 1010.18C657.882 968.974 772.882 940.144 891.052 923.684C978.482 913.074 1065.81 902.904 1153.05 893.184C1200.64 888.694 1248.3 885.194 1296.05 882.684C1362.4 880.744 1428.73 878.914 1495.05 877.184C1564.64 878.754 1634.3 880.594 1704.05 882.684C1751.8 885.194 1799.46 888.694 1847.05 893.184Z" fill="#FEFEFE"/>
<path fill-rule="evenodd" clip-rule="evenodd" d="M1834.05 1072.18C1838.82 1073.57 1843.82 1074.24 1849.05 1074.18C1850.72 1074.18 1852.38 1074.18 1854.05 1074.18C1858.82 1075.57 1863.82 1076.24 1869.05 1076.18C1876.47 1078.07 1884.13 1079.07 1892.05 1079.18C1892.72 1079.18 1893.38 1079.18 1894.05 1079.18C1898.82 1080.57 1903.82 1081.24 1909.05 1081.18C1910.72 1081.18 1912.38 1081.18 1914.05 1081.18C1921.15 1082.91 1928.48 1083.91 1936.05 1084.18C1939.85 1085.16 1943.85 1085.5 1948.05 1085.18C1954.46 1087.02 1961.13 1088.02 1968.05 1088.18C1981.68 1090.44 1995.35 1092.44 2009.05 1094.18C2012.5 1095.37 2016.16 1096.03 2020.05 1096.18C2039.7 1099.94 2059.37 1103.61 2079.05 1107.18C2081.06 1108.6 2083.4 1109.27 2086.05 1109.18C2087.99 1109.83 2089.99 1110.16 2092.05 1110.18C2095.05 1111.96 2098.39 1112.96 2102.05 1113.18C2104.95 1114.26 2107.95 1114.92 2111.05 1115.18C2113.06 1116.6 2115.4 1117.27 2118.05 1117.18C2122.18 1118.96 2126.52 1119.96 2131.05 1120.18C2135.05 1122.29 2139.39 1123.62 2144.05 1124.18C2144.38 1124.18 2144.72 1124.18 2145.05 1124.18C2148.05 1125.96 2151.39 1126.96 2155.05 1127.18C2160.56 1129.31 2166.23 1130.98 2172.05 1132.18C2175.05 1133.96 2178.39 1134.96 2182.05 1135.18C2182.94 1135.79 2183.94 1136.12 2185.05 1136.18C2188.05 1137.96 2191.39 1138.96 2195.05 1139.18C2228.81 1150.34 2261.81 1163.84 2294.05 1179.68C2302.99 1184.95 2311.65 1190.62 2320.05 1196.68C2325.09 1201.6 2328.42 1207.44 2330.05 1214.18C2329.96 1216.83 2330.63 1219.17 2332.05 1221.18C2335.1 1232.43 2337.77 1243.76 2340.05 1255.18C2339.96 1257.83 2340.63 1260.17 2342.05 1262.18C2343.34 1265.36 2344.01 1268.69 2344.05 1272.18C2343.96 1274.83 2344.63 1277.17 2346.05 1279.18C2355.14 1319.88 2362.81 1360.88 2369.05 1402.18C2368.89 1404.87 2369.05 1407.53 2369.55 1410.18C2369.83 1411.1 2370.33 1411.76 2371.05 1412.18C2371.72 1417.85 2372.38 1423.51 2373.05 1429.18C2373.32 1435.43 2374.32 1441.43 2376.05 1447.18C2377.48 1459.49 2378.82 1471.82 2380.05 1484.18C2379.93 1489.75 2380.59 1495.08 2382.05 1500.18C2383.62 1517.84 2384.95 1535.5 2386.05 1553.18C2385.75 1562.07 2386.41 1570.74 2388.05 1579.18C2393.11 1678.44 2390.11 1777.44 2379.05 1876.18C2377.23 1883.61 2376.23 1891.27 2376.05 1899.18C2375.15 1902.07 2374.81 1905.07 2375.05 1908.18C2373.58 1912.6 2372.91 1917.27 2373.05 1922.18C2371.73 1927.39 2371.07 1932.72 2371.05 1938.18C2369.51 1940.52 2368.84 1943.18 2369.05 1946.18C2368.72 1948.85 2368.38 1951.51 2368.05 1954.18C2366.97 1957.31 2366.3 1960.64 2366.05 1964.18C2365.85 1967.2 2365.51 1970.2 2365.05 1973.18C2363.89 1975.95 2363.23 1978.95 2363.05 1982.18C2360.37 1998.91 2357.37 2015.58 2354.05 2032.18C2352.78 2034.59 2352.12 2037.25 2352.05 2040.18C2348.14 2057.8 2344.47 2075.46 2341.05 2093.18C2339.63 2095.19 2338.96 2097.53 2339.05 2100.18C2336.86 2107.29 2335.19 2114.62 2334.05 2122.18C2332.27 2125.18 2331.27 2128.52 2331.05 2132.18C2329.19 2142.08 2324.19 2149.92 2316.05 2155.68C2295.24 2169.58 2273.24 2181.08 2250.05 2190.18C2244.65 2191.42 2239.65 2193.42 2235.05 2196.18C2220.48 2200.73 2206.15 2205.73 2192.05 2211.18C2189.4 2211.09 2187.06 2211.76 2185.05 2213.18C2182.97 2213.65 2180.97 2214.32 2179.05 2215.18C2176.4 2215.09 2174.06 2215.76 2172.05 2217.18C2166.23 2218.38 2160.56 2220.05 2155.05 2222.18C2150.39 2222.74 2146.05 2224.07 2142.05 2226.18C2133.95 2227.8 2125.95 2229.8 2118.05 2232.18C2115.4 2232.09 2113.06 2232.76 2111.05 2234.18C2107.95 2234.44 2104.95 2235.1 2102.05 2236.18C2099.4 2236.09 2097.06 2236.76 2095.05 2238.18C2092.01 2238.69 2089.01 2239.36 2086.05 2240.18C2083.4 2240.09 2081.06 2240.76 2079.05 2242.18C2059.37 2245.75 2039.7 2249.42 2020.05 2253.18C2012.78 2253.78 2005.78 2255.11 1999.05 2257.18C1998.72 2257.18 1998.38 2257.18 1998.05 2257.18C1991.14 2257.43 1984.48 2258.43 1978.05 2260.18C1974.69 2260.3 1971.36 2260.63 1968.05 2261.18C1963.14 2261.04 1958.47 2261.71 1954.05 2263.18C1947.87 2263.52 1941.87 2264.19 1936.05 2265.18C1930.82 2265.12 1925.82 2265.79 1921.05 2267.18C1917.03 2267.33 1913.03 2267.66 1909.05 2268.18C1903.82 2268.12 1898.82 2268.79 1894.05 2270.18C1890.69 2270.3 1887.36 2270.63 1884.05 2271.18C1878.8 2270.98 1873.8 2271.65 1869.05 2273.18C1862.35 2273.57 1855.69 2274.23 1849.05 2275.18C1843.82 2275.12 1838.82 2275.79 1834.05 2277.18C1807.05 2279.85 1780.05 2282.51 1753.05 2285.18C1745.19 2285.25 1737.52 2285.92 1730.05 2287.18C1702.11 2289.77 1674.11 2291.61 1646.05 2292.68C1596.71 2293.53 1547.38 2294.7 1498.05 2296.18C1468.05 2295.43 1438.05 2294.76 1408.05 2294.18C1387.89 2293.08 1367.56 2292.42 1347.05 2292.18C1334.37 2291.67 1321.71 2291 1309.05 2290.18C1301.9 2289.06 1294.57 2288.4 1287.05 2288.18C1280.05 2287.91 1273.05 2287.57 1266.05 2287.18C1260.28 2285.73 1254.28 2285.07 1248.05 2285.18C1239.7 2284.66 1231.37 2283.99 1223.05 2283.18C1217.95 2281.72 1212.62 2281.06 1207.05 2281.18C1202.03 2281.07 1197.03 2280.73 1192.05 2280.18C1184.96 2278.38 1177.63 2277.38 1170.05 2277.18C1165.4 2276.68 1160.73 2276.35 1156.05 2276.18C1151.98 2274.63 1147.65 2273.96 1143.05 2274.18C1136.7 2273.62 1130.37 2272.96 1124.05 2272.18C1117.33 2270.17 1110.33 2269.17 1103.05 2269.18C1100.72 2269.18 1098.38 2269.18 1096.05 2269.18C1091.98 2267.63 1087.65 2266.96 1083.05 2267.18C1078.71 2266.94 1074.37 2266.61 1070.05 2266.18C1065.63 2264.71 1060.96 2264.04 1056.05 2264.18C1051.73 2263.75 1047.39 2263.42 1043.05 2263.18C1037.32 2261.34 1031.32 2260.34 1025.05 2260.18C1006.99 2257.95 988.992 2255.28 971.052 2252.18C968.712 2250.64 966.052 2249.97 963.052 2250.18C942.222 2246.59 921.552 2242.25 901.052 2237.18C898.052 2235.4 894.712 2234.4 891.052 2234.18C873.552 2230.14 856.222 2225.47 839.052 2220.18C836.052 2218.4 832.712 2217.4 829.052 2217.18C826.052 2215.4 822.712 2214.4 819.052 2214.18C817.432 2213.64 815.772 2213.31 814.052 2213.18C811.932 2211.03 809.272 2210.03 806.052 2210.18C772.012 2199.83 739.012 2186.66 707.052 2170.68C696.612 2164.71 686.772 2157.88 677.552 2150.18C673.472 2144.78 670.642 2138.78 669.052 2132.18C668.832 2128.52 667.832 2125.18 666.052 2122.18C664.912 2114.62 663.242 2107.29 661.052 2100.18C661.142 2097.53 660.472 2095.19 659.052 2093.18C655.632 2075.46 651.962 2057.8 648.052 2040.18C647.982 2037.25 647.322 2034.59 646.052 2032.18C642.732 2015.58 639.732 1998.91 637.052 1982.18C636.872 1978.95 636.212 1975.95 635.052 1973.18C634.592 1970.2 634.252 1967.2 634.052 1964.18C633.802 1960.64 633.132 1957.31 632.052 1954.18C631.722 1951.51 631.382 1948.85 631.052 1946.18C631.262 1943.18 630.592 1940.52 629.052 1938.18C629.032 1932.72 628.372 1927.39 627.052 1922.18C627.192 1917.27 626.522 1912.6 625.052 1908.18C625.292 1905.07 624.952 1902.07 624.052 1899.18C623.872 1891.27 622.872 1883.61 621.052 1876.18C609.992 1777.44 606.992 1678.44 612.052 1579.18C613.692 1570.74 614.352 1562.07 614.052 1553.18C615.052 1538.52 616.052 1523.86 617.052 1509.18C618.072 1504.7 618.742 1500.03 619.052 1495.18C620.722 1479.18 622.382 1463.18 624.052 1447.18C625.782 1441.43 626.782 1435.43 627.052 1429.18C627.722 1423.51 628.382 1417.85 629.052 1412.18C629.772 1411.76 630.272 1411.1 630.552 1410.18C631.052 1407.53 631.212 1404.87 631.052 1402.18C637.302 1360.88 644.962 1319.88 654.052 1279.18C655.472 1277.17 656.142 1274.83 656.052 1272.18C656.092 1268.69 656.762 1265.36 658.052 1262.18C659.472 1260.17 660.142 1257.83 660.052 1255.18C662.332 1243.76 665.002 1232.43 668.052 1221.18C669.472 1219.17 670.142 1216.83 670.052 1214.18C671.382 1206.67 675.052 1200.5 681.052 1195.68C700.912 1181.42 722.242 1169.75 745.052 1160.68C765.072 1152.62 785.402 1145.45 806.052 1139.18C809.712 1138.96 813.052 1137.96 816.052 1136.18C816.942 1135.57 817.942 1135.24 819.052 1135.18C821.702 1135.27 824.042 1134.6 826.052 1133.18C826.942 1132.57 827.942 1132.24 829.052 1132.18C831.702 1132.27 834.042 1131.6 836.052 1130.18C855.202 1124.23 874.532 1118.89 894.052 1114.18C896.702 1114.27 899.042 1113.6 901.052 1112.18C921.552 1107.11 942.222 1102.77 963.052 1099.18C966.052 1099.39 968.712 1098.72 971.052 1097.18C988.992 1094.08 1006.99 1091.41 1025.05 1089.18C1031.32 1089.02 1037.32 1088.02 1043.05 1086.18C1045.05 1086.18 1047.05 1086.18 1049.05 1086.18C1056.3 1086 1063.3 1085 1070.05 1083.18C1072.05 1083.18 1074.05 1083.18 1076.05 1083.18C1081.3 1083.38 1086.3 1082.71 1091.05 1081.18C1097.36 1080.33 1103.7 1079.66 1110.05 1079.18C1117 1079.24 1123.67 1078.24 1130.05 1076.18C1132.05 1076.18 1134.05 1076.18 1136.05 1076.18C1143 1076.24 1149.67 1075.24 1156.05 1073.18C1160.73 1073.01 1165.4 1072.68 1170.05 1072.18C1175.6 1072.15 1180.93 1071.49 1186.05 1070.18C1193.01 1069.14 1200.01 1068.47 1207.05 1068.18C1212.62 1068.3 1217.95 1067.64 1223.05 1066.18C1231.36 1065.27 1239.7 1064.6 1248.05 1064.18C1254.28 1064.29 1260.28 1063.63 1266.05 1062.18C1273.05 1061.79 1280.05 1061.45 1287.05 1061.18C1294.57 1060.96 1301.9 1060.3 1309.05 1059.18C1317.04 1058.74 1325.04 1058.41 1333.05 1058.18C1358.21 1057.2 1383.21 1056.2 1408.05 1055.18C1439.88 1054.57 1471.72 1053.91 1503.55 1053.18C1569.75 1054.61 1635.91 1056.78 1702.05 1059.68C1746.04 1063.81 1790.04 1067.98 1834.05 1072.18Z" fill="#0C1620"/>
<path fill-rule="evenodd" clip-rule="evenodd" d="M1408.05 1055.18C1383.21 1056.2 1358.21 1057.2 1333.05 1058.18C1357.84 1055.8 1382.84 1054.8 1408.05 1055.18Z" fill="#70767C"/>
<path fill-rule="evenodd" clip-rule="evenodd" d="M1309.05 1059.18C1301.9 1060.3 1294.57 1060.96 1287.05 1061.18C1294.15 1059.5 1301.48 1058.84 1309.05 1059.18Z" fill="#636A70"/>
<path fill-rule="evenodd" clip-rule="evenodd" d="M1266.05 1062.18C1260.28 1063.63 1254.28 1064.29 1248.05 1064.18C1253.82 1062.73 1259.82 1062.07 1266.05 1062.18Z" fill="#797F84"/>
<path fill-rule="evenodd" clip-rule="evenodd" d="M1223.05 1066.18C1217.95 1067.64 1212.62 1068.3 1207.05 1068.18C1212.15 1066.72 1217.48 1066.06 1223.05 1066.18Z" fill="#676D73"/>
<path opacity="0.996" fill-rule="evenodd" clip-rule="evenodd" d="M1186.05 1070.18C1180.93 1071.49 1175.6 1072.15 1170.05 1072.18C1175.15 1070.72 1180.48 1070.06 1186.05 1070.18Z" fill="#535A61"/>
<path fill-rule="evenodd" clip-rule="evenodd" d="M1834.05 1072.18C1839.28 1072.12 1844.28 1072.79 1849.05 1074.18C1843.82 1074.24 1838.82 1073.57 1834.05 1072.18Z" fill="#909599"/>
<path opacity="0.967" fill-rule="evenodd" clip-rule="evenodd" d="M1156.05 1073.18C1149.67 1075.24 1143 1076.24 1136.05 1076.18C1142.5 1074.64 1149.17 1073.64 1156.05 1073.18Z" fill="#414951"/>
<path fill-rule="evenodd" clip-rule="evenodd" d="M1854.05 1074.18C1859.28 1074.12 1864.28 1074.79 1869.05 1076.18C1863.82 1076.24 1858.82 1075.57 1854.05 1074.18Z" fill="#C6C9CB"/>
<path fill-rule="evenodd" clip-rule="evenodd" d="M1869.05 1076.18C1876.93 1076.55 1884.6 1077.55 1892.05 1079.18C1884.13 1079.07 1876.47 1078.07 1869.05 1076.18Z" fill="#93979C"/>
<path opacity="0.961" fill-rule="evenodd" clip-rule="evenodd" d="M1130.05 1076.18C1123.67 1078.24 1117 1079.24 1110.05 1079.18C1116.5 1077.64 1123.17 1076.64 1130.05 1076.18Z" fill="#4A5259"/>
<path fill-rule="evenodd" clip-rule="evenodd" d="M1894.05 1079.18C1899.28 1079.12 1904.28 1079.79 1909.05 1081.18C1903.82 1081.24 1898.82 1080.57 1894.05 1079.18Z" fill="#94989D"/>
<path opacity="0.969" fill-rule="evenodd" clip-rule="evenodd" d="M1091.05 1081.18C1086.3 1082.71 1081.3 1083.38 1076.05 1083.18C1080.82 1081.79 1085.82 1081.12 1091.05 1081.18Z" fill="#3A424A"/>
<path fill-rule="evenodd" clip-rule="evenodd" d="M1914.05 1081.18C1921.62 1081.45 1928.95 1082.45 1936.05 1084.18C1928.48 1083.91 1921.15 1082.91 1914.05 1081.18Z" fill="#B9BCBF"/>
<path opacity="0.996" fill-rule="evenodd" clip-rule="evenodd" d="M1070.05 1083.18C1063.3 1085 1056.3 1086 1049.05 1086.18C1055.83 1084.55 1062.83 1083.55 1070.05 1083.18Z" fill="#5E656C"/>
<path fill-rule="evenodd" clip-rule="evenodd" d="M1948.05 1085.18C1954.97 1085.34 1961.64 1086.34 1968.05 1088.18C1961.13 1088.02 1954.46 1087.02 1948.05 1085.18Z" fill="#AFB2B5"/>
<path fill-rule="evenodd" clip-rule="evenodd" d="M1043.05 1086.18C1037.32 1088.02 1031.32 1089.02 1025.05 1089.18C1030.82 1087.55 1036.82 1086.55 1043.05 1086.18Z" fill="#93979C"/>
<path fill-rule="evenodd" clip-rule="evenodd" d="M2009.05 1094.18C2013.04 1093.8 2016.71 1094.46 2020.05 1096.18C2016.16 1096.03 2012.5 1095.37 2009.05 1094.18Z" fill="#9A9FA3"/>
<path fill-rule="evenodd" clip-rule="evenodd" d="M971.052 1097.18C968.712 1098.72 966.052 1099.39 963.052 1099.18C965.462 1097.91 968.122 1097.25 971.052 1097.18Z" fill="#6D747A"/>
<path fill-rule="evenodd" clip-rule="evenodd" d="M2079.05 1107.18C2081.7 1107.09 2084.04 1107.76 2086.05 1109.18C2083.4 1109.27 2081.06 1108.6 2079.05 1107.18Z" fill="#A0A4A8"/>
<path fill-rule="evenodd" clip-rule="evenodd" d="M2092.05 1110.18C2095.71 1110.4 2099.05 1111.4 2102.05 1113.18C2098.39 1112.96 2095.05 1111.96 2092.05 1110.18Z" fill="#A0A4A8"/>
<path opacity="0.996" fill-rule="evenodd" clip-rule="evenodd" d="M901.052 1112.18C899.042 1113.6 896.702 1114.27 894.052 1114.18C896.062 1112.76 898.402 1112.09 901.052 1112.18Z" fill="#646A70"/>
<path fill-rule="evenodd" clip-rule="evenodd" d="M2111.05 1115.18C2113.7 1115.09 2116.04 1115.76 2118.05 1117.18C2115.4 1117.27 2113.06 1116.6 2111.05 1115.18Z" fill="#95999E"/>
<path fill-rule="evenodd" clip-rule="evenodd" d="M2131.05 1120.18C2135.71 1120.74 2140.05 1122.07 2144.05 1124.18C2139.39 1123.62 2135.05 1122.29 2131.05 1120.18Z" fill="#A5A8AC"/>
<path fill-rule="evenodd" clip-rule="evenodd" d="M2145.05 1124.18C2148.71 1124.4 2152.05 1125.4 2155.05 1127.18C2151.39 1126.96 2148.05 1125.96 2145.05 1124.18Z" fill="#AFB2B5"/>
<path opacity="0.996" fill-rule="evenodd" clip-rule="evenodd" d="M836.052 1130.18C834.042 1131.6 831.702 1132.27 829.052 1132.18C831.062 1130.76 833.402 1130.09 836.052 1130.18Z" fill="#4E555C"/>
<path fill-rule="evenodd" clip-rule="evenodd" d="M2172.05 1132.18C2175.71 1132.4 2179.05 1133.4 2182.05 1135.18C2178.39 1134.96 2175.05 1133.96 2172.05 1132.18Z" fill="#A3A6AA"/>
<path fill-rule="evenodd" clip-rule="evenodd" d="M826.052 1133.18C824.042 1134.6 821.702 1135.27 819.052 1135.18C821.062 1133.76 823.402 1133.09 826.052 1133.18Z" fill="#4B525A"/>
<path fill-rule="evenodd" clip-rule="evenodd" d="M2185.05 1136.18C2188.71 1136.4 2192.05 1137.4 2195.05 1139.18C2191.39 1138.96 2188.05 1137.96 2185.05 1136.18Z" fill="#9FA3A7"/>
<path fill-rule="evenodd" clip-rule="evenodd" d="M816.052 1136.18C813.052 1137.96 809.712 1138.96 806.052 1139.18C809.052 1137.4 812.392 1136.4 816.052 1136.18Z" fill="#515860"/>
<path opacity="0.996" fill-rule="evenodd" clip-rule="evenodd" d="M670.052 1214.18C670.142 1216.83 669.472 1219.17 668.052 1221.18C667.962 1218.53 668.632 1216.19 670.052 1214.18Z" fill="#5E656B"/>
<path opacity="0.996" fill-rule="evenodd" clip-rule="evenodd" d="M2330.05 1214.18C2331.47 1216.19 2332.14 1218.53 2332.05 1221.18C2330.63 1219.17 2329.96 1216.83 2330.05 1214.18Z" fill="#5E656B"/>
<path fill-rule="evenodd" clip-rule="evenodd" d="M660.052 1255.18C660.142 1257.83 659.472 1260.17 658.052 1262.18C657.962 1259.53 658.632 1257.19 660.052 1255.18Z" fill="#5A6168"/>
<path fill-rule="evenodd" clip-rule="evenodd" d="M2340.05 1255.18C2341.47 1257.19 2342.14 1259.53 2342.05 1262.18C2340.63 1260.17 2339.96 1257.83 2340.05 1255.18Z" fill="#5A6168"/>
<path fill-rule="evenodd" clip-rule="evenodd" d="M656.052 1272.18C656.142 1274.83 655.472 1277.17 654.052 1279.18C653.962 1276.53 654.632 1274.19 656.052 1272.18Z" fill="#697076"/>
<path fill-rule="evenodd" clip-rule="evenodd" d="M2344.05 1272.18C2345.47 1274.19 2346.14 1276.53 2346.05 1279.18C2344.63 1277.17 2343.96 1274.83 2344.05 1272.18Z" fill="#696F76"/>
<path opacity="0.987" fill-rule="evenodd" clip-rule="evenodd" d="M380.052 1360.18C349.725 1577.04 351.059 1793.7 384.052 2010.18C384.032 2011.41 383.699 2012.41 383.052 2013.18C350.597 2003.03 324.097 1984.36 303.552 1957.18C280.313 1925.35 264.646 1890.02 256.552 1851.18C248.334 1813.79 244.501 1775.95 245.052 1737.68C244.692 1659.12 253.525 1581.62 271.552 1505.18C278.843 1469.62 292.176 1436.62 311.552 1406.18C324.051 1388.67 339.885 1375.17 359.052 1365.68C365.829 1362.92 372.829 1361.09 380.052 1360.18Z" fill="#2DEAE6"/>
<path opacity="0.987" fill-rule="evenodd" clip-rule="evenodd" d="M2620.05 1360.18C2636.06 1362.52 2650.39 1368.69 2663.05 1378.68C2685.88 1398.85 2702.38 1423.35 2712.55 1452.18C2735.25 1521.39 2748.59 1592.39 2752.55 1665.18C2755.73 1708.52 2755.73 1751.86 2752.55 1795.18C2749.2 1828.65 2742.2 1861.31 2731.55 1893.18C2718.49 1927.89 2698.66 1958.05 2672.05 1983.68C2656.04 1997.69 2637.71 2007.52 2617.05 2013.18C2616.4 2012.41 2616.07 2011.41 2616.05 2010.18C2649.04 1793.7 2650.38 1577.04 2620.05 1360.18Z" fill="#2DEAE6"/>
<path opacity="0.965" fill-rule="evenodd" clip-rule="evenodd" d="M631.052 1402.18C631.212 1404.87 631.052 1407.53 630.552 1410.18C630.272 1411.1 629.772 1411.76 629.052 1412.18C629.302 1408.64 629.972 1405.31 631.052 1402.18Z" fill="#50575F"/>
<path opacity="0.965" fill-rule="evenodd" clip-rule="evenodd" d="M2369.05 1402.18C2370.13 1405.31 2370.8 1408.64 2371.05 1412.18C2370.33 1411.76 2369.83 1411.1 2369.55 1410.18C2369.05 1407.53 2368.89 1404.87 2369.05 1402.18Z" fill="#50575F"/>
<path fill-rule="evenodd" clip-rule="evenodd" d="M627.052 1429.18C626.782 1435.43 625.782 1441.43 624.052 1447.18C624.322 1440.93 625.322 1434.93 627.052 1429.18Z" fill="#93979C"/>
<path fill-rule="evenodd" clip-rule="evenodd" d="M2373.05 1429.18C2374.78 1434.93 2375.78 1440.93 2376.05 1447.18C2374.32 1441.43 2373.32 1435.43 2373.05 1429.18Z" fill="#93979C"/>
<path fill-rule="evenodd" clip-rule="evenodd" d="M2380.05 1484.18C2381.36 1489.3 2382.02 1494.63 2382.05 1500.18C2380.59 1495.08 2379.93 1489.75 2380.05 1484.18Z" fill="#797F84"/>
<path fill-rule="evenodd" clip-rule="evenodd" d="M619.052 1495.18C618.742 1500.03 618.072 1504.7 617.052 1509.18C616.882 1505.5 617.052 1501.83 617.552 1498.18C617.782 1496.94 618.282 1495.94 619.052 1495.18Z" fill="#AEB1B5"/>
<path opacity="0.98" fill-rule="evenodd" clip-rule="evenodd" d="M614.052 1553.18C614.352 1562.07 613.692 1570.74 612.052 1579.18C612.072 1570.32 612.732 1561.65 614.052 1553.18Z" fill="#373F48"/>
<path opacity="0.98" fill-rule="evenodd" clip-rule="evenodd" d="M2386.05 1553.18C2387.37 1561.65 2388.03 1570.32 2388.05 1579.18C2386.41 1570.74 2385.75 1562.07 2386.05 1553.18Z" fill="#373F48"/>
<path fill-rule="evenodd" clip-rule="evenodd" d="M2243.05 1614.18C2237.06 1612.91 2231.06 1612.91 2225.05 1614.18C2227.91 1612.67 2231.07 1612.01 2234.55 1612.18C2236.72 1612.35 2238.88 1612.51 2241.05 1612.68C2241.97 1612.96 2242.63 1613.46 2243.05 1614.18Z" fill="#24B4B4"/>
<path fill-rule="evenodd" clip-rule="evenodd" d="M772.052 1613.18C766.352 1613.05 760.682 1613.39 755.052 1614.18C758.082 1612.66 761.412 1611.99 765.052 1612.18C767.582 1612.18 769.912 1612.52 772.052 1613.18Z" fill="#23A9A9"/>
<path fill-rule="evenodd" clip-rule="evenodd" d="M772.052 1613.18C775.682 1613.96 779.012 1615.46 782.052 1617.68C838.222 1652.6 894.552 1687.26 951.052 1721.68C952.582 1724.03 954.252 1726.2 956.052 1728.18C957.712 1734.03 958.372 1740.03 958.052 1746.18C957.922 1747.9 957.592 1749.56 957.052 1751.18C955.302 1752.71 954.302 1754.71 954.052 1757.18C949.482 1766.91 942.152 1773.74 932.052 1777.68C925.722 1778.61 919.722 1777.61 914.052 1774.68C856.722 1739.35 799.382 1704.01 742.052 1668.68C733.192 1660.06 730.852 1649.89 735.052 1638.18C736.462 1637.71 737.122 1636.71 737.052 1635.18C740.012 1628.11 744.342 1621.94 750.052 1616.68C751.632 1615.59 753.292 1614.75 755.052 1614.18C760.682 1613.39 766.352 1613.05 772.052 1613.18Z" fill="#2CE8E4"/>
<path fill-rule="evenodd" clip-rule="evenodd" d="M2243.05 1614.18C2247.82 1615.77 2251.99 1618.43 2255.55 1622.18C2258.07 1626.57 2260.57 1630.9 2263.05 1635.18C2262.98 1636.71 2263.64 1637.71 2265.05 1638.18C2269.25 1649.89 2266.91 1660.06 2258.05 1668.68C2199.49 1704.79 2140.83 1740.62 2082.05 1776.18C2077.45 1777.06 2072.78 1777.4 2068.05 1777.18C2065.13 1777.22 2062.46 1776.39 2060.05 1774.68C2051.35 1766.83 2045.35 1757.33 2042.05 1746.18C2041.94 1740.81 2042.28 1735.48 2043.05 1730.18C2044.92 1728.65 2046.25 1726.65 2047.05 1724.18C2049.46 1721.79 2052.13 1719.63 2055.05 1717.68C2111.61 1682.91 2168.27 1648.41 2225.05 1614.18C2231.06 1612.91 2237.06 1612.91 2243.05 1614.18Z" fill="#2CE8E4"/>
<path fill-rule="evenodd" clip-rule="evenodd" d="M737.052 1635.18C737.122 1636.71 736.462 1637.71 735.052 1638.18C734.982 1636.65 735.642 1635.65 737.052 1635.18Z" fill="#1C7A7E"/>
<path fill-rule="evenodd" clip-rule="evenodd" d="M2263.05 1635.18C2264.46 1635.65 2265.12 1636.65 2265.05 1638.18C2263.64 1637.71 2262.98 1636.71 2263.05 1635.18Z" fill="#1C7A7E"/>
<path fill-rule="evenodd" clip-rule="evenodd" d="M1383.05 1803.18C1383.8 1808.14 1384.14 1813.14 1384.05 1818.18C1380.98 1828.08 1374.32 1833.91 1364.05 1835.68C1338.34 1836.49 1312.67 1836.33 1287.05 1835.18C1286.58 1833.77 1285.58 1833.11 1284.05 1833.18C1259.04 1811.99 1234.37 1790.33 1210.05 1768.18C1186.09 1790.15 1161.76 1811.65 1137.05 1832.68C1134.83 1833.96 1132.5 1834.96 1130.05 1835.68C1106.1 1837.31 1082.1 1837.64 1058.05 1836.68C1039.59 1832.26 1032.42 1820.76 1036.55 1802.18C1042.31 1794.42 1048.81 1787.25 1056.05 1780.68C1099.9 1742.58 1143.57 1704.25 1187.05 1665.68C1195.87 1657.56 1206.2 1654.89 1218.05 1657.68C1222.09 1658.58 1225.75 1660.25 1229.05 1662.68C1278.51 1705.81 1327.68 1749.31 1376.55 1793.18C1379.36 1796.14 1381.53 1799.48 1383.05 1803.18Z" fill="#2CE9E5"/>
<path fill-rule="evenodd" clip-rule="evenodd" d="M1963.05 1803.18C1963.8 1808.14 1964.14 1813.14 1964.05 1818.18C1960.98 1828.08 1954.32 1833.91 1944.05 1835.68C1918.34 1836.49 1892.67 1836.33 1867.05 1835.18C1866.58 1833.77 1865.58 1833.11 1864.05 1833.18C1839.04 1811.99 1814.37 1790.33 1790.05 1768.18C1766.09 1790.15 1741.76 1811.65 1717.05 1832.68C1714.83 1833.96 1712.5 1834.96 1710.05 1835.68C1686.1 1837.31 1662.1 1837.64 1638.05 1836.68C1619.59 1832.26 1612.42 1820.76 1616.55 1802.18C1622.31 1794.42 1628.81 1787.25 1636.05 1780.68C1679.9 1742.58 1723.57 1704.25 1767.05 1665.68C1775.87 1657.56 1786.2 1654.89 1798.05 1657.68C1802.09 1658.58 1805.75 1660.25 1809.05 1662.68C1858.51 1705.81 1907.68 1749.31 1956.55 1793.18C1959.36 1796.14 1961.53 1799.48 1963.05 1803.18Z" fill="#2CE9E5"/>
<path fill-rule="evenodd" clip-rule="evenodd" d="M2047.05 1724.18C2046.25 1726.65 2044.92 1728.65 2043.05 1730.18C2043.39 1727.48 2044.73 1725.48 2047.05 1724.18Z" fill="#22A1A2"/>
<path fill-rule="evenodd" clip-rule="evenodd" d="M956.052 1728.18C957.112 1729.28 957.942 1730.61 958.552 1732.18C959.372 1737.03 959.202 1741.7 958.052 1746.18C958.372 1740.03 957.712 1734.03 956.052 1728.18Z" fill="#25B5B5"/>
<path fill-rule="evenodd" clip-rule="evenodd" d="M2043.05 1730.18C2042.28 1735.48 2041.94 1740.81 2042.05 1746.18C2040.9 1741.7 2040.73 1737.03 2041.55 1732.18C2041.83 1731.26 2042.33 1730.6 2043.05 1730.18Z" fill="#24B1B0"/>
<path fill-rule="evenodd" clip-rule="evenodd" d="M957.052 1751.18C956.802 1753.65 955.802 1755.65 954.052 1757.18C954.302 1754.71 955.302 1752.71 957.052 1751.18Z" fill="#1C7579"/>
<path fill-rule="evenodd" clip-rule="evenodd" d="M2082.05 1776.18C2081.94 1776.8 2081.61 1777.3 2081.05 1777.68C2076.53 1778.49 2072.2 1778.33 2068.05 1777.18C2072.78 1777.4 2077.45 1777.06 2082.05 1776.18Z" fill="#1B7477"/>
<path fill-rule="evenodd" clip-rule="evenodd" d="M1383.05 1803.18C1384.54 1805.87 1385.21 1808.87 1385.05 1812.18C1385.05 1814.38 1384.71 1816.38 1384.05 1818.18C1384.14 1813.14 1383.8 1808.14 1383.05 1803.18Z" fill="#22A3A4"/>
<path fill-rule="evenodd" clip-rule="evenodd" d="M1963.05 1803.18C1964.54 1805.87 1965.21 1808.87 1965.05 1812.18C1965.05 1814.38 1964.71 1816.38 1964.05 1818.18C1964.14 1813.14 1963.8 1808.14 1963.05 1803.18Z" fill="#22A3A4"/>
<path fill-rule="evenodd" clip-rule="evenodd" d="M1284.05 1833.18C1285.58 1833.11 1286.58 1833.77 1287.05 1835.18C1285.52 1835.25 1284.52 1834.59 1284.05 1833.18Z" fill="#1C7E81"/>
<path fill-rule="evenodd" clip-rule="evenodd" d="M1864.05 1833.18C1865.58 1833.11 1866.58 1833.77 1867.05 1835.18C1865.52 1835.25 1864.52 1834.59 1864.05 1833.18Z" fill="#1C7E81"/>
<path fill-rule="evenodd" clip-rule="evenodd" d="M932.052 1841.18C927.322 1840.96 922.652 1841.3 918.052 1842.18C918.162 1841.56 918.492 1841.06 919.052 1840.68C923.572 1839.87 927.902 1840.03 932.052 1841.18Z" fill="#1B787C"/>
<path fill-rule="evenodd" clip-rule="evenodd" d="M932.052 1841.18C940.012 1843.28 946.172 1847.95 950.552 1855.18C956.782 1863.44 959.622 1872.77 959.052 1883.18C957.482 1885.19 956.482 1887.52 956.052 1890.18C952.532 1894.86 948.202 1898.7 943.052 1901.68C887.162 1936.12 831.162 1970.29 775.052 2004.18C770.192 2005.72 765.192 2006.39 760.052 2006.18C753.912 2004.52 748.742 2001.18 744.552 1996.18C741.552 1991.18 738.552 1986.18 735.552 1981.18C732.132 1972.97 732.302 1964.97 736.052 1957.18C737.462 1956.71 738.122 1955.71 738.052 1954.18C741.912 1950.16 746.242 1946.66 751.052 1943.68C806.442 1909.32 862.112 1875.49 918.052 1842.18C922.652 1841.3 927.322 1840.96 932.052 1841.18Z" fill="#2CE8E4"/>
<path fill-rule="evenodd" clip-rule="evenodd" d="M2044.05 1890.18C2043.62 1887.52 2042.62 1885.19 2041.05 1883.18C2040.62 1872.71 2043.62 1863.37 2050.05 1855.18C2052.18 1853.59 2053.85 1851.59 2055.05 1849.18C2059.15 1843.21 2064.98 1840.21 2072.55 1840.18C2075.76 1840.42 2078.92 1840.92 2082.05 1841.68C2140.72 1877.68 2199.38 1913.68 2258.05 1949.68C2266.94 1957.41 2269.44 1966.91 2265.55 1978.18C2261.89 1987.33 2256.39 1995.16 2249.05 2001.68C2241.48 2006.22 2233.48 2007.22 2225.05 2004.68C2167.55 1969.1 2109.88 1933.76 2052.05 1898.68C2049.18 1895.98 2046.51 1893.14 2044.05 1890.18Z" fill="#2CE8E4"/>
<path fill-rule="evenodd" clip-rule="evenodd" d="M2055.05 1849.18C2053.85 1851.59 2052.18 1853.59 2050.05 1855.18C2050.8 1852.32 2052.46 1850.32 2055.05 1849.18Z" fill="#209799"/>
<path fill-rule="evenodd" clip-rule="evenodd" d="M621.052 1876.18C622.872 1883.61 623.872 1891.27 624.052 1899.18C622.422 1891.73 621.422 1884.06 621.052 1876.18Z" fill="#989DA1"/>
<path fill-rule="evenodd" clip-rule="evenodd" d="M2379.05 1876.18C2378.68 1884.06 2377.68 1891.73 2376.05 1899.18C2376.23 1891.27 2377.23 1883.61 2379.05 1876.18Z" fill="#989DA1"/>
<path fill-rule="evenodd" clip-rule="evenodd" d="M959.052 1883.18C959.382 1886.17 958.382 1888.5 956.052 1890.18C956.482 1887.52 957.482 1885.19 959.052 1883.18Z" fill="#164E55"/>
<path fill-rule="evenodd" clip-rule="evenodd" d="M2041.05 1883.18C2042.62 1885.19 2043.62 1887.52 2044.05 1890.18C2041.72 1888.5 2040.72 1886.17 2041.05 1883.18Z" fill="#164E55"/>
<path fill-rule="evenodd" clip-rule="evenodd" d="M625.052 1908.18C626.522 1912.6 627.192 1917.27 627.052 1922.18C625.582 1917.76 624.912 1913.09 625.052 1908.18Z" fill="#ACB0B3"/>
<path fill-rule="evenodd" clip-rule="evenodd" d="M2375.05 1908.18C2375.19 1913.09 2374.52 1917.76 2373.05 1922.18C2372.91 1917.27 2373.58 1912.6 2375.05 1908.18Z" fill="#ACB0B3"/>
<path fill-rule="evenodd" clip-rule="evenodd" d="M629.052 1938.18C630.592 1940.52 631.262 1943.18 631.052 1946.18C629.782 1943.77 629.122 1941.11 629.052 1938.18Z" fill="#898E92"/>
<path fill-rule="evenodd" clip-rule="evenodd" d="M2371.05 1938.18C2370.98 1941.11 2370.32 1943.77 2369.05 1946.18C2368.84 1943.18 2369.51 1940.52 2371.05 1938.18Z" fill="#898E93"/>
<path fill-rule="evenodd" clip-rule="evenodd" d="M738.052 1954.18C738.122 1955.71 737.462 1956.71 736.052 1957.18C735.982 1955.65 736.642 1954.65 738.052 1954.18Z" fill="#1D8084"/>
<path fill-rule="evenodd" clip-rule="evenodd" d="M632.052 1954.18C633.132 1957.31 633.802 1960.64 634.052 1964.18C633.332 1963.76 632.832 1963.1 632.552 1962.18C632.052 1959.53 631.892 1956.87 632.052 1954.18Z" fill="#959A9E"/>
<path fill-rule="evenodd" clip-rule="evenodd" d="M2368.05 1954.18C2368.21 1956.87 2368.05 1959.53 2367.55 1962.18C2367.27 1963.1 2366.77 1963.76 2366.05 1964.18C2366.3 1960.64 2366.97 1957.31 2368.05 1954.18Z" fill="#959A9E"/>
<path fill-rule="evenodd" clip-rule="evenodd" d="M635.052 1973.18C636.212 1975.95 636.872 1978.95 637.052 1982.18C636.432 1982.07 635.932 1981.74 635.552 1981.18C635.052 1978.53 634.892 1975.87 635.052 1973.18Z" fill="#A8ACB0"/>
<path fill-rule="evenodd" clip-rule="evenodd" d="M2365.05 1973.18C2365.21 1975.87 2365.05 1978.53 2364.55 1981.18C2364.17 1981.74 2363.67 1982.07 2363.05 1982.18C2363.23 1978.95 2363.89 1975.95 2365.05 1973.18Z" fill="#A8ACB0"/>
<path fill-rule="evenodd" clip-rule="evenodd" d="M775.052 2004.18C773.872 2005.75 772.202 2006.58 770.052 2006.68C766.522 2007.49 763.192 2007.32 760.052 2006.18C765.192 2006.39 770.192 2005.72 775.052 2004.18Z" fill="#154E55"/>
<path fill-rule="evenodd" clip-rule="evenodd" d="M646.051 2032.18C647.321 2034.59 647.981 2037.25 648.051 2040.18C646.181 2038.04 645.511 2035.38 646.051 2032.18Z" fill="#AFB2B5"/>
<path fill-rule="evenodd" clip-rule="evenodd" d="M2354.05 2032.18C2354.59 2035.38 2353.92 2038.04 2352.05 2040.18C2352.12 2037.25 2352.78 2034.59 2354.05 2032.18Z" fill="#AFB2B5"/>
<path fill-rule="evenodd" clip-rule="evenodd" d="M659.052 2093.18C660.472 2095.19 661.142 2097.53 661.052 2100.18C659.632 2098.17 658.962 2095.83 659.052 2093.18Z" fill="#AAAEB1"/>
<path fill-rule="evenodd" clip-rule="evenodd" d="M2341.05 2093.18C2341.14 2095.83 2340.47 2098.17 2339.05 2100.18C2338.96 2097.53 2339.63 2095.19 2341.05 2093.18Z" fill="#AAAEB1"/>
<path fill-rule="evenodd" clip-rule="evenodd" d="M666.052 2122.18C667.832 2125.18 668.832 2128.52 669.052 2132.18C667.272 2129.18 666.272 2125.84 666.052 2122.18Z" fill="#B1B4B7"/>
<path fill-rule="evenodd" clip-rule="evenodd" d="M2334.05 2122.18C2333.83 2125.84 2332.83 2129.18 2331.05 2132.18C2331.27 2128.52 2332.27 2125.18 2334.05 2122.18Z" fill="#B1B4B7"/>
<path fill-rule="evenodd" clip-rule="evenodd" d="M2250.05 2190.18C2249.94 2190.8 2249.61 2191.3 2249.05 2191.68C2244.44 2193.49 2239.77 2194.99 2235.05 2196.18C2239.65 2193.42 2244.65 2191.42 2250.05 2190.18Z" fill="#B5B8BB"/>
<path fill-rule="evenodd" clip-rule="evenodd" d="M806.052 2210.18C809.272 2210.03 811.932 2211.03 814.052 2213.18C811.152 2212.55 808.492 2211.55 806.052 2210.18Z" fill="#5B6269"/>
<path fill-rule="evenodd" clip-rule="evenodd" d="M2192.05 2211.18C2190.04 2212.6 2187.7 2213.27 2185.05 2213.18C2187.06 2211.76 2189.4 2211.09 2192.05 2211.18Z" fill="#A4A7AB"/>
<path fill-rule="evenodd" clip-rule="evenodd" d="M819.052 2214.18C822.712 2214.4 826.052 2215.4 829.052 2217.18C825.392 2216.96 822.052 2215.96 819.052 2214.18Z" fill="#585F66"/>
<path fill-rule="evenodd" clip-rule="evenodd" d="M2179.05 2215.18C2177.04 2216.6 2174.7 2217.27 2172.05 2217.18C2174.06 2215.76 2176.4 2215.09 2179.05 2215.18Z" fill="#B1B4B7"/>
<path opacity="0.996" fill-rule="evenodd" clip-rule="evenodd" d="M829.052 2217.18C832.712 2217.4 836.052 2218.4 839.052 2220.18C835.392 2219.96 832.052 2218.96 829.052 2217.18Z" fill="#5B6268"/>
<path fill-rule="evenodd" clip-rule="evenodd" d="M2155.05 2222.18C2151.05 2224.29 2146.71 2225.62 2142.05 2226.18C2146.05 2224.07 2150.39 2222.74 2155.05 2222.18Z" fill="#C7C9CB"/>
<path fill-rule="evenodd" clip-rule="evenodd" d="M2118.05 2232.18C2116.04 2233.6 2113.7 2234.27 2111.05 2234.18C2113.06 2232.76 2115.4 2232.09 2118.05 2232.18Z" fill="#9CA0A4"/>
<path opacity="0.996" fill-rule="evenodd" clip-rule="evenodd" d="M891.052 2234.18C894.712 2234.4 898.052 2235.4 901.052 2237.18C897.392 2236.96 894.052 2235.96 891.052 2234.18Z" fill="#575D64"/>
<path fill-rule="evenodd" clip-rule="evenodd" d="M2102.05 2236.18C2100.04 2237.6 2097.7 2238.27 2095.05 2238.18C2097.06 2236.76 2099.4 2236.09 2102.05 2236.18Z" fill="#93979C"/>
<path fill-rule="evenodd" clip-rule="evenodd" d="M2086.05 2240.18C2084.04 2241.6 2081.7 2242.27 2079.05 2242.18C2081.06 2240.76 2083.4 2240.09 2086.05 2240.18Z" fill="#B1B4B7"/>
<path fill-rule="evenodd" clip-rule="evenodd" d="M963.052 2250.18C966.052 2249.97 968.712 2250.64 971.052 2252.18C968.122 2252.11 965.462 2251.45 963.052 2250.18Z" fill="#7E8388"/>
<path fill-rule="evenodd" clip-rule="evenodd" d="M2020.05 2253.18C2013.44 2255.9 2006.44 2257.23 1999.05 2257.18C2005.78 2255.11 2012.78 2253.78 2020.05 2253.18Z" fill="#C2C4C7"/>
<path fill-rule="evenodd" clip-rule="evenodd" d="M1998.05 2257.18C1991.65 2259.1 1984.98 2260.1 1978.05 2260.18C1984.48 2258.43 1991.14 2257.43 1998.05 2257.18Z" fill="#BDC0C3"/>
<path fill-rule="evenodd" clip-rule="evenodd" d="M1025.05 2260.18C1031.32 2260.34 1037.32 2261.34 1043.05 2263.18C1036.82 2262.81 1030.82 2261.81 1025.05 2260.18Z" fill="#93979C"/>
<path fill-rule="evenodd" clip-rule="evenodd" d="M1968.05 2261.18C1963.63 2262.65 1958.96 2263.32 1954.05 2263.18C1958.47 2261.71 1963.14 2261.04 1968.05 2261.18Z" fill="#A2A6AA"/>
<path fill-rule="evenodd" clip-rule="evenodd" d="M1056.05 2264.18C1060.96 2264.04 1065.63 2264.71 1070.05 2266.18C1065.16 2266.15 1060.49 2265.48 1056.05 2264.18Z" fill="#7D8288"/>
<path fill-rule="evenodd" clip-rule="evenodd" d="M1936.05 2265.18C1931.28 2266.57 1926.28 2267.24 1921.05 2267.18C1925.82 2265.79 1930.82 2265.12 1936.05 2265.18Z" fill="#AEB2B5"/>
<path opacity="0.996" fill-rule="evenodd" clip-rule="evenodd" d="M1083.05 2267.18C1087.65 2266.96 1091.98 2267.63 1096.05 2269.18C1091.47 2269.24 1087.14 2268.58 1083.05 2267.18Z" fill="#6E747A"/>
<path opacity="0.98" fill-rule="evenodd" clip-rule="evenodd" d="M1103.05 2269.18C1110.33 2269.17 1117.33 2270.17 1124.05 2272.18C1116.83 2271.81 1109.83 2270.81 1103.05 2269.18Z" fill="#3E464E"/>
<path fill-rule="evenodd" clip-rule="evenodd" d="M1909.05 2268.18C1904.28 2269.57 1899.28 2270.24 1894.05 2270.18C1898.82 2268.79 1903.82 2268.12 1909.05 2268.18Z" fill="#9EA2A6"/>
<path fill-rule="evenodd" clip-rule="evenodd" d="M1884.05 2271.18C1879.28 2272.57 1874.28 2273.24 1869.05 2273.18C1873.8 2271.65 1878.8 2270.98 1884.05 2271.18Z" fill="#A6A9AD"/>
<path opacity="0.996" fill-rule="evenodd" clip-rule="evenodd" d="M1143.05 2274.18C1147.65 2273.96 1151.98 2274.63 1156.05 2276.18C1151.5 2276.06 1147.17 2275.39 1143.05 2274.18Z" fill="#646B71"/>
<path fill-rule="evenodd" clip-rule="evenodd" d="M1849.05 2275.18C1844.28 2276.57 1839.28 2277.24 1834.05 2277.18C1838.82 2275.79 1843.82 2275.12 1849.05 2275.18Z" fill="#9B9FA3"/>
<path fill-rule="evenodd" clip-rule="evenodd" d="M1170.05 2277.18C1177.63 2277.38 1184.96 2278.38 1192.05 2280.18C1184.48 2279.91 1177.15 2278.91 1170.05 2277.18Z" fill="#6C7278"/>
<path fill-rule="evenodd" clip-rule="evenodd" d="M1207.05 2281.18C1212.62 2281.06 1217.95 2281.72 1223.05 2283.18C1217.48 2283.3 1212.15 2282.64 1207.05 2281.18Z" fill="#777D82"/>
<path fill-rule="evenodd" clip-rule="evenodd" d="M1248.05 2285.18C1254.28 2285.07 1260.28 2285.73 1266.05 2287.18C1259.82 2287.29 1253.82 2286.63 1248.05 2285.18Z" fill="#898E92"/>
<path fill-rule="evenodd" clip-rule="evenodd" d="M1753.05 2285.18C1745.62 2286.88 1737.95 2287.54 1730.05 2287.18C1737.52 2285.92 1745.19 2285.25 1753.05 2285.18Z" fill="#ACAFB3"/>
<path fill-rule="evenodd" clip-rule="evenodd" d="M1287.05 2288.18C1294.57 2288.4 1301.9 2289.06 1309.05 2290.18C1301.48 2290.52 1294.15 2289.86 1287.05 2288.18Z" fill="#787E83"/>
<path fill-rule="evenodd" clip-rule="evenodd" d="M1347.05 2292.18C1367.56 2292.42 1387.89 2293.08 1408.05 2294.18C1387.53 2294.47 1367.19 2293.8 1347.05 2292.18Z" fill="#84898F"/>
</svg>
