<svg width="3000" height="3000" viewBox="0 0 3000 3000" fill="none" xmlns="http://www.w3.org/2000/svg">
<g clip-path="url(#clip0_2033_801)">
<path opacity="0.992" fill-rule="evenodd" clip-rule="evenodd" d="M976.918 870.942C879.679 896.74 782.414 923.063 685.111 949.901C553.955 988.579 428.488 1040.74 308.711 1106.4C316.059 1033.29 326.638 960.64 340.447 888.433C356.799 803.006 385.29 722.266 425.918 646.213C445.024 610.841 468.158 578.227 495.305 548.351C530.228 514.911 571.854 501.35 620.171 507.67C646.249 511.502 670.669 519.826 693.432 532.643C712.846 544.992 731.624 558.211 749.77 572.314C786.72 604.151 822.214 637.481 856.258 672.279C908.106 731.3 948.33 797.517 976.918 870.942Z" fill="#2DEAE6"/>
<path opacity="0.992" fill-rule="evenodd" clip-rule="evenodd" d="M2471.41 783.144C2333.85 754.827 2194.78 741.811 2054.2 744.108C1957.13 747.005 1860.25 750.094 1763.56 753.363C1770.04 663.548 1793.89 578.867 1835.1 499.32C1858.48 457.155 1883.83 416.088 1911.13 376.131C1928.25 352.535 1948.81 332.466 1972.82 315.923C2032.31 277.917 2091.41 277.967 2150.14 316.072C2220.26 366.439 2279.06 427.759 2326.54 500.03C2360.93 552.773 2391.54 607.679 2418.37 664.761C2436.91 703.859 2454.59 743.316 2471.41 783.144Z" fill="#2DEAE6"/>
<path opacity="0.997" fill-rule="evenodd" clip-rule="evenodd" d="M1763.56 753.364C1860.25 750.095 1957.13 747.006 2054.2 744.109C2194.78 741.811 2333.85 754.828 2471.41 783.145C2512.92 790.569 2552.36 803.794 2589.75 822.819C2597.02 826.842 2602.68 832.37 2606.71 839.404C2650.23 941.329 2687.62 1045.43 2718.87 1151.74C2789.99 1392.41 2825.17 1638.22 2824.46 1889.19C2824.69 1890.58 2825.23 1891.66 2826.1 1892.42C2825.73 1993.95 2820.19 2095.2 2809.51 2196.19C2807.71 2204.1 2803.91 2211.04 2798.13 2217.01C2771.23 2242.99 2741.34 2265.24 2708.45 2283.72C2587.55 2352.15 2460.39 2405.93 2326.97 2445.03C2194.34 2483.02 2060.85 2517.65 1926.49 2548.93C1896.97 2555.46 1867.36 2561.44 1837.62 2566.85C1772.84 2578.07 1708.1 2589.49 1643.42 2601.09C1485.89 2624.87 1327.45 2639.86 1168.08 2646.06C1089.65 2648.85 1011.21 2651.3 932.778 2653.42C793.752 2655.03 656.425 2640.79 520.808 2610.7C483.947 2602.64 448.862 2590.11 415.535 2573.13C408.257 2569.11 402.603 2563.58 398.57 2556.55C358.816 2463.1 323.919 2367.89 293.88 2270.9C294.483 2269.92 294.691 2268.73 294.505 2267.33C220.432 2027.55 182.213 1782.19 179.848 1531.24C178.645 1420.44 183.956 1309.96 195.775 1199.76C197.575 1191.85 201.366 1184.91 207.149 1178.94C237.34 1149.81 271.19 1125.63 308.711 1106.4C428.487 1040.74 553.955 988.578 685.11 949.901C782.414 923.062 879.679 896.739 976.918 870.941C1030.1 857.789 1083.53 845.748 1137.23 834.813C1212.11 821.373 1286.98 808.061 1361.86 794.864C1441.01 784.854 1520.28 775.138 1599.69 765.69C1654.24 760.445 1708.86 756.338 1763.56 753.364Z" fill="#FEFEFE"/>
<path fill-rule="evenodd" clip-rule="evenodd" d="M1779.15 958.461C1784.79 959.228 1790.57 959.14 1796.49 958.186C1798.39 957.903 1800.27 957.622 1802.16 957.339C1807.8 958.107 1813.58 958.019 1819.5 957.065C1828.23 957.95 1837.08 957.786 1846.08 956.569C1846.84 956.455 1847.59 956.343 1848.35 956.23C1853.99 956.997 1859.77 956.91 1865.69 955.956C1867.58 955.673 1869.46 955.391 1871.36 955.108C1879.7 955.866 1888.17 955.758 1896.8 954.782C1901.27 955.249 1905.87 954.956 1910.57 953.882C1918.15 954.882 1925.88 954.885 1933.75 953.894C1949.58 954.147 1965.42 954.098 1981.24 953.749C1985.35 954.513 1989.61 954.641 1994.05 954.152C2016.96 955.085 2039.87 955.913 2062.79 956.625C2065.3 957.894 2068.07 958.257 2071.06 957.706C2073.37 958.114 2075.69 958.149 2078.03 957.823C2081.73 959.332 2085.69 959.9 2089.87 959.529C2093.34 960.262 2096.86 960.502 2100.41 960.271C2102.93 961.541 2105.7 961.904 2108.69 961.353C2113.67 962.67 2118.76 963.069 2123.93 962.551C2128.82 964.265 2133.97 965.037 2139.34 964.882C2139.72 964.826 2140.1 964.769 2140.48 964.713C2144.18 966.222 2148.13 966.79 2152.32 966.419C2158.93 967.9 2165.64 968.832 2172.44 969.206C2176.14 970.716 2180.09 971.283 2184.28 970.913C2185.39 971.453 2186.58 971.658 2187.85 971.538C2191.55 973.047 2195.51 973.615 2199.69 973.244C2239.85 980.174 2279.54 989.885 2318.77 1002.38C2329.8 1006.84 2340.57 1011.8 2351.12 1017.24C2357.67 1021.97 2362.43 1028.02 2365.42 1035.38C2365.77 1038.4 2366.92 1040.94 2368.87 1042.98C2374.24 1055.21 2379.18 1067.6 2383.7 1080.16C2384.05 1083.18 2385.2 1085.72 2387.15 1087.76C2389.16 1091.14 2390.48 1094.81 2391.12 1098.75C2391.46 1101.77 2392.62 1104.31 2394.57 1106.35C2411.77 1150.94 2427.41 1196.12 2441.48 1241.87C2441.75 1244.95 2442.38 1247.94 2443.4 1250.86C2443.87 1251.85 2444.55 1252.52 2445.44 1252.87C2447.16 1259.18 2448.87 1265.49 2450.59 1271.8C2451.95 1278.84 2454.1 1285.47 2457.04 1291.69C2460.74 1305.41 2464.35 1319.15 2467.84 1332.96C2468.65 1339.29 2470.3 1345.22 2472.82 1350.75C2477.59 1370.5 2482.09 1390.3 2486.33 1410.15C2487.49 1420.28 2489.71 1429.99 2493 1439.28C2515.55 1550.94 2528.92 1663.66 2533.12 1777.45C2532.31 1786.18 2532.48 1795.04 2533.61 1804.03C2533.08 1807.46 2533.21 1810.92 2534 1814.4C2533.09 1819.66 2533.12 1825.07 2534.11 1830.61C2533.5 1836.74 2533.65 1842.89 2534.55 1849.09C2533.2 1852 2532.89 1855.13 2533.64 1858.49C2533.72 1861.57 2533.78 1864.65 2533.86 1867.73C2533.17 1871.46 2532.97 1875.35 2533.29 1879.4C2533.58 1882.86 2533.7 1886.32 2533.68 1889.77C2532.84 1893.11 2532.6 1896.62 2532.94 1900.31C2532.74 1919.73 2532.16 1939.14 2531.21 1958.51C2530.18 1961.46 2529.88 1964.59 2530.3 1967.92C2528.85 1988.55 2527.68 2009.19 2526.81 2029.86C2525.54 2032.38 2525.18 2035.14 2525.73 2038.13C2524.45 2046.56 2523.8 2055.15 2523.79 2063.92C2522.28 2067.62 2521.71 2071.57 2522.08 2075.76C2521.65 2087.3 2517.31 2097.03 2509.06 2104.94C2487.83 2124.22 2464.84 2140.98 2440.09 2155.22C2434.18 2157.55 2428.85 2160.66 2424.11 2164.57C2408.36 2172.19 2392.97 2180.29 2377.91 2188.85C2374.89 2189.2 2372.35 2190.36 2370.31 2192.31C2368.04 2193.19 2365.88 2194.29 2363.85 2195.59C2360.83 2195.94 2358.29 2197.09 2356.26 2199.04C2349.86 2201.39 2343.72 2204.24 2337.83 2207.59C2332.65 2209.02 2327.95 2211.26 2323.78 2214.33C2314.87 2217.54 2306.14 2221.16 2297.59 2225.19C2294.57 2225.54 2292.03 2226.7 2289.99 2228.65C2286.52 2229.47 2283.23 2230.72 2280.13 2232.44C2277.11 2232.79 2274.57 2233.94 2272.54 2235.89C2269.18 2236.99 2265.89 2238.25 2262.67 2239.68C2259.65 2240.03 2257.11 2241.19 2255.08 2243.14C2233.37 2250.52 2211.7 2258.01 2190.06 2265.6C2181.93 2267.51 2174.22 2270.21 2166.94 2273.69C2166.56 2273.75 2166.18 2273.81 2165.81 2273.86C2158.02 2275.32 2150.64 2277.58 2143.64 2280.65C2139.86 2281.36 2136.14 2282.29 2132.48 2283.48C2126.89 2284.15 2121.71 2285.7 2116.95 2288.12C2110 2289.55 2103.31 2291.33 2096.88 2293.43C2090.95 2294.25 2085.39 2295.86 2080.22 2298.24C2075.69 2299.09 2071.21 2300.15 2066.79 2301.41C2060.85 2302.23 2055.3 2303.83 2050.12 2306.22C2046.34 2306.92 2042.62 2307.86 2038.96 2309.04C2032.97 2309.71 2027.42 2311.31 2022.3 2313.85C2014.77 2315.43 2007.33 2317.31 1999.96 2319.51C1994.03 2320.33 1988.47 2321.93 1983.3 2324.32C1953.15 2331.92 1923 2339.51 1892.84 2347.11C1883.95 2348.52 1875.37 2350.58 1867.11 2353.27C1835.88 2360.94 1804.46 2367.77 1772.83 2373.74C1717.05 2383.06 1661.33 2392.74 1605.67 2402.78C1571.54 2407.01 1537.42 2411.33 1503.31 2415.76C1480.28 2417.93 1457.12 2420.62 1433.83 2423.83C1419.37 2425.4 1404.91 2426.78 1390.42 2428C1382.13 2427.94 1373.71 2428.43 1365.15 2429.46C1357.17 2430.34 1349.17 2431.14 1341.17 2431.88C1334.39 2431.22 1327.47 2431.48 1320.43 2432.66C1310.88 2433.49 1301.32 2434.14 1291.76 2434.63C1285.73 2433.84 1279.57 2434 1273.28 2435.08C1267.57 2435.8 1261.85 2436.26 1256.11 2436.48C1247.77 2435.65 1239.29 2435.75 1230.66 2436.81C1225.31 2437.03 1219.96 2437.45 1214.63 2438.05C1209.75 2436.98 1204.73 2436.96 1199.55 2437.99C1192.26 2438.43 1184.97 2438.75 1177.68 2438.94C1169.72 2437.8 1161.61 2437.85 1153.36 2439.09C1150.72 2439.49 1148.07 2439.89 1145.43 2440.28C1140.55 2439.21 1135.53 2439.19 1130.36 2440.22C1125.4 2440.68 1120.42 2441.04 1115.45 2441.28C1110.19 2440.37 1104.78 2440.4 1099.24 2441.39C1094.27 2441.63 1089.3 2442 1084.34 2442.46C1077.53 2441.34 1070.56 2441.23 1063.43 2442.11C1042.58 2442.64 1021.72 2442.66 1000.86 2442.19C997.95 2440.84 994.822 2440.53 991.457 2441.28C967.238 2440.74 943.073 2439.32 918.978 2437.05C915.276 2435.54 911.321 2434.97 907.135 2435.34C886.614 2433.72 866.18 2431.37 845.821 2428.28C842.119 2426.77 838.164 2426.2 833.978 2426.57C830.276 2425.06 826.321 2424.5 822.135 2424.87C820.207 2424.53 818.27 2424.44 816.298 2424.58C813.531 2422.5 810.346 2421.82 806.722 2422.54C766.384 2416.57 726.748 2407.23 687.814 2394.54C674.969 2389.54 662.659 2383.46 650.903 2376.3C645.364 2370.87 641.139 2364.55 638.219 2357.33C637.35 2353.22 635.65 2349.61 633.124 2346.51C630.551 2338.13 627.417 2330.11 623.73 2322.42C623.383 2319.4 622.227 2316.86 620.277 2314.82C613.398 2295.32 606.246 2275.92 598.829 2256.61C598.253 2253.3 597.055 2250.4 595.207 2247.88C588.631 2229.63 582.407 2211.24 576.534 2192.73C575.783 2189.1 574.527 2185.81 572.743 2182.87C571.716 2179.57 570.823 2176.23 570.084 2172.84C569.201 2168.87 567.878 2165.21 566.123 2161.84C565.297 2158.87 564.461 2155.91 563.634 2152.94C563.364 2149.51 562.154 2146.61 560.012 2144.21C559.064 2138.03 557.413 2132.1 555.034 2126.42C554.361 2120.83 552.811 2115.65 550.395 2110.89C550.141 2107.32 549.247 2103.98 547.737 2100.85C546.193 2091.92 543.762 2083.41 540.44 2075.29C511.175 1965.25 491.002 1853.54 479.921 1740.17C480.35 1730.33 479.629 1720.39 477.783 1710.36C476.433 1693.57 475.083 1676.79 473.729 1659.98C474.126 1654.73 474.095 1649.32 473.624 1643.77C472.806 1625.35 471.977 1606.94 471.16 1588.52C472.146 1581.71 472.263 1574.74 471.511 1567.61C471.309 1561.07 471.099 1554.54 470.897 1548C471.642 1547.4 472.097 1546.57 472.259 1545.48C472.377 1542.39 472.107 1539.35 471.47 1536.32C471.557 1488.45 473.294 1440.68 476.702 1393.01C477.971 1390.49 478.334 1387.72 477.783 1384.73C477.237 1380.77 477.432 1376.88 478.356 1373.06C479.625 1370.54 479.988 1367.78 479.437 1364.79C480.086 1351.46 481.193 1338.16 482.744 1324.89C484.013 1322.37 484.376 1319.61 483.825 1316.62C484.061 1307.88 487.175 1300.27 493.16 1293.79C513.255 1274.26 535.455 1257.42 559.773 1243.27C581.1 1230.74 602.929 1219.17 625.274 1208.57C629.385 1207.7 633.001 1206 636.1 1203.47C637.006 1202.63 638.083 1202.09 639.331 1201.83C642.35 1201.48 644.889 1200.33 646.927 1198.38C647.832 1197.54 648.91 1196.99 650.158 1196.74C653.177 1196.39 655.716 1195.23 657.754 1193.28C678.452 1183.29 699.458 1173.97 720.785 1165.32C723.804 1164.97 726.343 1163.82 728.381 1161.87C750.759 1152.65 773.453 1144.23 796.455 1136.63C799.891 1136.36 802.793 1135.15 805.184 1133.01C824.994 1126.45 844.944 1120.38 865.037 1114.79C872.117 1113.55 878.749 1111.4 884.932 1108.34C887.199 1108 889.466 1107.66 891.733 1107.32C899.92 1105.89 907.685 1103.57 915.028 1100.37C917.295 1100.03 919.562 1099.69 921.829 1099.35C927.813 1098.69 933.367 1097.08 938.492 1094.54C945.501 1092.51 952.573 1090.67 959.69 1089.05C967.578 1087.95 974.969 1085.68 981.851 1082.27C984.118 1081.93 986.385 1081.59 988.652 1081.25C996.54 1080.14 1003.93 1077.88 1010.81 1074.46C1016.09 1073.47 1021.33 1072.31 1026.51 1070.96C1032.8 1069.98 1038.73 1068.33 1044.31 1065.98C1052.02 1063.62 1059.84 1061.67 1067.77 1060.15C1074.11 1059.34 1080.04 1057.69 1085.57 1055.17C1094.84 1052.74 1104.18 1050.56 1113.57 1048.67C1120.65 1047.74 1127.34 1045.98 1133.63 1043.36C1141.5 1041.73 1149.38 1040.16 1157.27 1038.66C1165.75 1037.14 1173.95 1035.15 1181.87 1032.67C1190.85 1030.82 1199.86 1029.09 1208.9 1027.47C1237.25 1022.1 1265.42 1016.73 1293.4 1011.36C1329.38 1005.28 1365.36 999.137 1401.31 992.917C1476.59 983.323 1551.95 974.574 1627.41 966.655C1677.97 963.884 1728.55 961.156 1779.15 958.461Z" fill="#0C1620"/>
<path fill-rule="evenodd" clip-rule="evenodd" d="M1293.4 1011.36C1265.42 1016.73 1237.25 1022.1 1208.9 1027.47C1236.6 1020.57 1264.76 1015.2 1293.4 1011.36Z" fill="#70767C"/>
<path fill-rule="evenodd" clip-rule="evenodd" d="M1181.87 1032.67C1173.95 1035.15 1165.75 1037.14 1157.27 1038.66C1165.03 1035.56 1173.23 1033.57 1181.87 1032.67Z" fill="#636A70"/>
<path fill-rule="evenodd" clip-rule="evenodd" d="M1133.63 1043.36C1127.34 1045.98 1120.65 1047.74 1113.57 1048.67C1119.86 1046.05 1126.55 1044.29 1133.63 1043.36Z" fill="#797F84"/>
<path fill-rule="evenodd" clip-rule="evenodd" d="M1085.57 1055.18C1080.04 1057.69 1074.11 1059.35 1067.77 1060.15C1073.31 1057.63 1079.24 1055.98 1085.57 1055.18Z" fill="#676D73"/>
<path opacity="0.996" fill-rule="evenodd" clip-rule="evenodd" d="M1044.31 1065.98C1038.73 1068.33 1032.8 1069.98 1026.51 1070.95C1032.05 1068.44 1037.98 1066.78 1044.31 1065.98Z" fill="#535A61"/>
<path fill-rule="evenodd" clip-rule="evenodd" d="M1779.15 958.46C1785.07 957.506 1790.85 957.418 1796.49 958.185C1790.57 959.14 1784.79 959.227 1779.15 958.46Z" fill="#909599"/>
<path opacity="0.967" fill-rule="evenodd" clip-rule="evenodd" d="M1010.81 1074.46C1003.93 1077.88 996.539 1080.14 988.651 1081.25C995.701 1078.41 1003.09 1076.15 1010.81 1074.46Z" fill="#414951"/>
<path fill-rule="evenodd" clip-rule="evenodd" d="M1802.16 957.339C1808.08 956.385 1813.86 956.297 1819.5 957.064C1813.58 958.018 1807.8 958.106 1802.16 957.339Z" fill="#C6C9CB"/>
<path fill-rule="evenodd" clip-rule="evenodd" d="M1819.5 957.064C1828.5 956.149 1837.36 955.983 1846.08 956.568C1837.08 957.785 1828.23 957.95 1819.5 957.064Z" fill="#93979C"/>
<path opacity="0.961" fill-rule="evenodd" clip-rule="evenodd" d="M981.851 1082.27C974.969 1085.68 967.578 1087.95 959.69 1089.05C966.74 1086.22 974.131 1083.95 981.851 1082.27Z" fill="#4A5259"/>
<path fill-rule="evenodd" clip-rule="evenodd" d="M1848.35 956.229C1854.26 955.275 1860.05 955.188 1865.69 955.955C1859.77 956.909 1853.99 956.997 1848.35 956.229Z" fill="#94989D"/>
<path opacity="0.969" fill-rule="evenodd" clip-rule="evenodd" d="M938.492 1094.54C933.367 1097.08 927.813 1098.69 921.829 1099.35C927 1096.96 932.554 1095.36 938.492 1094.54Z" fill="#3A424A"/>
<path fill-rule="evenodd" clip-rule="evenodd" d="M1871.36 955.108C1879.98 954.132 1888.46 954.024 1896.8 954.782C1888.17 955.758 1879.7 955.866 1871.36 955.108Z" fill="#B9BCBF"/>
<path opacity="0.996" fill-rule="evenodd" clip-rule="evenodd" d="M915.028 1100.37C907.685 1103.57 899.92 1105.89 891.733 1107.32C899.142 1104.33 906.907 1102.01 915.028 1100.37Z" fill="#5E656C"/>
<path fill-rule="evenodd" clip-rule="evenodd" d="M1910.57 953.882C1918.44 952.891 1926.17 952.894 1933.75 953.894C1925.88 954.885 1918.15 954.881 1910.57 953.882Z" fill="#AFB2B5"/>
<path fill-rule="evenodd" clip-rule="evenodd" d="M884.932 1108.34C878.749 1111.4 872.117 1113.55 865.037 1114.79C871.301 1111.96 877.933 1109.81 884.932 1108.34Z" fill="#93979C"/>
<path fill-rule="evenodd" clip-rule="evenodd" d="M1981.24 953.748C1985.7 952.642 1989.97 952.768 1994.05 954.152C1989.61 954.641 1985.35 954.513 1981.24 953.748Z" fill="#9A9FA3"/>
<path fill-rule="evenodd" clip-rule="evenodd" d="M805.184 1133.01C802.793 1135.15 799.891 1136.36 796.455 1136.63C798.972 1134.78 801.875 1133.58 805.184 1133.01Z" fill="#6D747A"/>
<path fill-rule="evenodd" clip-rule="evenodd" d="M2062.79 956.625C2065.78 956.074 2068.54 956.437 2071.06 957.706C2068.07 958.257 2065.31 957.894 2062.79 956.625Z" fill="#A0A4A8"/>
<path fill-rule="evenodd" clip-rule="evenodd" d="M2078.03 957.822C2082.22 957.452 2086.17 958.019 2089.87 959.529C2085.69 959.899 2081.73 959.332 2078.03 957.822Z" fill="#A0A4A8"/>
<path opacity="0.996" fill-rule="evenodd" clip-rule="evenodd" d="M728.381 1161.87C726.343 1163.82 723.804 1164.97 720.785 1165.32C722.823 1163.37 725.362 1162.22 728.381 1161.87Z" fill="#646A70"/>
<path fill-rule="evenodd" clip-rule="evenodd" d="M2100.41 960.271C2103.4 959.72 2106.17 960.083 2108.69 961.352C2105.7 961.903 2102.93 961.54 2100.41 960.271Z" fill="#95999E"/>
<path fill-rule="evenodd" clip-rule="evenodd" d="M2123.93 962.55C2129.31 962.396 2134.45 963.168 2139.34 964.882C2133.97 965.037 2128.82 964.264 2123.93 962.55Z" fill="#A5A8AC"/>
<path fill-rule="evenodd" clip-rule="evenodd" d="M2140.48 964.712C2144.66 964.342 2148.62 964.909 2152.32 966.419C2148.13 966.789 2144.18 966.222 2140.48 964.712Z" fill="#AFB2B5"/>
<path opacity="0.996" fill-rule="evenodd" clip-rule="evenodd" d="M657.754 1193.28C655.716 1195.23 653.177 1196.39 650.158 1196.74C652.196 1194.79 654.735 1193.63 657.754 1193.28Z" fill="#4E555C"/>
<path fill-rule="evenodd" clip-rule="evenodd" d="M2172.44 969.206C2176.62 968.835 2180.58 969.403 2184.28 970.912C2180.09 971.283 2176.14 970.715 2172.44 969.206Z" fill="#A3A6AA"/>
<path fill-rule="evenodd" clip-rule="evenodd" d="M646.927 1198.38C644.889 1200.33 642.35 1201.48 639.331 1201.83C641.369 1199.88 643.908 1198.72 646.927 1198.38Z" fill="#4B525A"/>
<path fill-rule="evenodd" clip-rule="evenodd" d="M2187.85 971.537C2192.04 971.166 2195.99 971.734 2199.69 973.243C2195.51 973.614 2191.55 973.046 2187.85 971.537Z" fill="#9FA3A7"/>
<path fill-rule="evenodd" clip-rule="evenodd" d="M636.1 1203.47C633.001 1206 629.385 1207.7 625.274 1208.57C628.373 1206.04 631.989 1204.34 636.1 1203.47Z" fill="#515860"/>
<path opacity="0.996" fill-rule="evenodd" clip-rule="evenodd" d="M483.826 1316.62C484.377 1319.61 484.014 1322.37 482.745 1324.89C482.194 1321.91 482.557 1319.14 483.826 1316.62Z" fill="#5E656B"/>
<path opacity="0.996" fill-rule="evenodd" clip-rule="evenodd" d="M2365.42 1035.38C2367.37 1037.42 2368.53 1039.96 2368.87 1042.98C2366.92 1040.94 2365.77 1038.4 2365.42 1035.38Z" fill="#5E656B"/>
<path fill-rule="evenodd" clip-rule="evenodd" d="M479.437 1364.79C479.988 1367.78 479.625 1370.54 478.356 1373.06C477.805 1370.07 478.168 1367.31 479.437 1364.79Z" fill="#5A6168"/>
<path fill-rule="evenodd" clip-rule="evenodd" d="M2383.7 1080.16C2385.65 1082.2 2386.81 1084.74 2387.15 1087.76C2385.2 1085.72 2384.05 1083.18 2383.7 1080.16Z" fill="#5A6168"/>
<path fill-rule="evenodd" clip-rule="evenodd" d="M477.783 1384.73C478.334 1387.72 477.971 1390.49 476.702 1393.01C476.151 1390.02 476.514 1387.25 477.783 1384.73Z" fill="#697076"/>
<path fill-rule="evenodd" clip-rule="evenodd" d="M2391.12 1098.75C2393.07 1100.79 2394.22 1103.33 2394.57 1106.35C2392.62 1104.31 2391.46 1101.77 2391.12 1098.75Z" fill="#696F76"/>
<path opacity="0.987" fill-rule="evenodd" clip-rule="evenodd" d="M179.849 1531.24C182.214 1782.19 220.433 2027.54 294.506 2267.33C294.691 2268.73 294.483 2269.92 293.881 2270.9C255.373 2264.9 222.173 2248.22 194.281 2220.9C162.547 2188.75 138.803 2151.36 123.048 2108.71C107.398 2067.72 96.6429 2025.48 90.7837 1982.01C77.0661 1893.02 73.9482 1803.68 81.4312 1713.98C83.671 1672.44 93.193 1632.77 109.998 1594.99C121.199 1573.02 136.86 1555.04 156.978 1541.03C164.192 1536.76 171.816 1533.5 179.849 1531.24Z" fill="#2DEAE6"/>
<path opacity="0.987" fill-rule="evenodd" clip-rule="evenodd" d="M2718.87 1151.74C2737.41 1151.68 2754.7 1156.25 2770.74 1165.43C2800.04 1184.42 2822.89 1209.4 2839.3 1240.35C2876.76 1314.95 2903.91 1393.17 2920.73 1475.01C2931.68 1523.6 2939.02 1572.72 2942.75 1622.36C2944.63 1660.87 2942.22 1699.07 2935.55 1737C2926.63 1778.56 2909.26 1816.1 2883.44 1849.66C2867.67 1868.26 2848.56 1882.5 2826.1 1892.42C2825.23 1891.66 2824.69 1890.58 2824.46 1889.19C2825.17 1638.22 2789.99 1392.41 2718.87 1151.74Z" fill="#2DEAE6"/>
<path opacity="0.965" fill-rule="evenodd" clip-rule="evenodd" d="M471.47 1536.32C472.107 1539.35 472.377 1542.39 472.259 1545.48C472.097 1546.57 471.642 1547.4 470.897 1548C470.581 1543.94 470.776 1540.06 471.47 1536.32Z" fill="#50575F"/>
<path opacity="0.965" fill-rule="evenodd" clip-rule="evenodd" d="M2441.48 1241.87C2443.23 1245.24 2444.56 1248.9 2445.44 1252.87C2444.55 1252.51 2443.87 1251.85 2443.4 1250.86C2442.38 1247.94 2441.75 1244.95 2441.48 1241.87Z" fill="#50575F"/>
<path fill-rule="evenodd" clip-rule="evenodd" d="M471.51 1567.61C472.263 1574.74 472.146 1581.71 471.159 1588.52C470.407 1581.39 470.524 1574.42 471.51 1567.61Z" fill="#93979C"/>
<path fill-rule="evenodd" clip-rule="evenodd" d="M2450.59 1271.8C2453.52 1278.02 2455.67 1284.65 2457.04 1291.69C2454.1 1285.47 2451.95 1278.84 2450.59 1271.8Z" fill="#93979C"/>
<path fill-rule="evenodd" clip-rule="evenodd" d="M2467.84 1332.96C2470.19 1338.54 2471.84 1344.47 2472.82 1350.75C2470.3 1345.22 2468.65 1339.29 2467.84 1332.96Z" fill="#797F84"/>
<path fill-rule="evenodd" clip-rule="evenodd" d="M473.624 1643.77C474.094 1649.32 474.126 1654.73 473.729 1659.98C472.913 1655.84 472.484 1651.65 472.432 1647.43C472.483 1645.98 472.88 1644.76 473.624 1643.77Z" fill="#AEB1B5"/>
<path opacity="0.98" fill-rule="evenodd" clip-rule="evenodd" d="M477.783 1710.36C479.63 1720.39 480.35 1730.33 479.921 1740.17C478.443 1730.13 477.722 1720.19 477.783 1710.36Z" fill="#373F48"/>
<path opacity="0.98" fill-rule="evenodd" clip-rule="evenodd" d="M2486.33 1410.15C2489.26 1419.53 2491.48 1429.24 2493 1439.28C2489.71 1429.99 2487.5 1420.28 2486.33 1410.15Z" fill="#373F48"/>
<path fill-rule="evenodd" clip-rule="evenodd" d="M2334.57 1503.52C2327.57 1503.1 2320.77 1504.11 2314.17 1506.57C2317.16 1504.37 2320.63 1503.09 2324.6 1502.69C2327.09 1502.52 2329.57 1502.33 2332.05 1502.16C2333.14 1502.32 2333.98 1502.77 2334.57 1503.52Z" fill="#24B4B4"/>
<path fill-rule="evenodd" clip-rule="evenodd" d="M667.04 1751.6C660.557 1752.42 654.188 1753.77 647.94 1755.62C651.117 1753.38 654.778 1752.06 658.936 1751.66C661.804 1751.23 664.503 1751.22 667.04 1751.6Z" fill="#23A9A9"/>
<path fill-rule="evenodd" clip-rule="evenodd" d="M667.041 1751.6C671.287 1751.87 675.316 1753.01 679.138 1755.01C748.722 1785.08 818.444 1814.82 888.318 1844.26C890.45 1846.67 892.71 1848.84 895.086 1850.78C897.959 1857.13 899.724 1863.82 900.403 1870.85C900.547 1872.82 900.454 1874.76 900.116 1876.68C898.392 1878.71 897.597 1881.15 897.732 1883.99C894.201 1895.8 887.049 1904.78 876.269 1910.96C869.251 1913.08 862.281 1912.97 855.358 1910.61C784.389 1880.27 713.407 1849.93 642.439 1819.6C630.936 1811.33 626.56 1800.19 629.337 1786.21C630.856 1785.44 631.434 1784.19 631.096 1782.47C633.253 1773.96 637.116 1766.23 642.697 1759.3C644.303 1757.8 646.042 1756.56 647.941 1755.62C654.188 1753.77 660.558 1752.42 667.041 1751.6Z" fill="#2CE8E4"/>
<path fill-rule="evenodd" clip-rule="evenodd" d="M2334.57 1503.52C2340.25 1504.51 2345.43 1506.82 2350.1 1510.47C2353.7 1515.02 2357.27 1519.5 2360.8 1523.94C2360.98 1525.68 2361.9 1526.7 2363.58 1527C2370.32 1539.56 2369.39 1551.48 2360.81 1562.75C2300.55 1613.61 2240.13 1664.16 2179.53 1714.42C2174.46 1716.2 2169.23 1717.38 2163.83 1717.93C2160.53 1718.47 2157.36 1717.98 2154.34 1716.45C2143.15 1709.03 2134.74 1699.27 2129.11 1687.19C2128.07 1681.13 2127.55 1675.03 2127.53 1668.89C2129.39 1666.84 2130.56 1664.35 2131.05 1661.41C2133.37 1658.29 2136.03 1655.39 2139.01 1652.69C2197.23 1603.69 2255.61 1554.99 2314.17 1506.57C2320.77 1504.11 2327.57 1503.1 2334.57 1503.52Z" fill="#2CE8E4"/>
<path fill-rule="evenodd" clip-rule="evenodd" d="M631.095 1782.47C631.434 1784.19 630.855 1785.44 629.337 1786.21C628.998 1784.49 629.577 1783.24 631.095 1782.47Z" fill="#1C7A7E"/>
<path fill-rule="evenodd" clip-rule="evenodd" d="M2360.8 1523.94C2362.48 1524.23 2363.4 1525.25 2363.58 1527C2361.9 1526.7 2360.98 1525.68 2360.8 1523.94Z" fill="#1C7A7E"/>
<path fill-rule="evenodd" clip-rule="evenodd" d="M1391.79 1863.45C1393.48 1868.95 1394.72 1874.56 1395.47 1880.28C1393.66 1892.03 1387.1 1899.76 1375.76 1903.51C1346.76 1908.78 1317.63 1912.95 1288.4 1915.99C1287.63 1914.47 1286.38 1913.89 1284.66 1914.23C1252.72 1894.45 1221.09 1874.07 1189.77 1853.09C1166.33 1882.05 1142.4 1910.54 1117.95 1938.57C1115.65 1940.39 1113.18 1941.92 1110.53 1943.15C1083.65 1949.06 1056.51 1953.5 1029.08 1956.48C1007.41 1954.6 997.335 1942.78 998.869 1921.02C1004.08 1911.25 1010.24 1902.02 1017.33 1893.35C1060.58 1842.73 1103.58 1791.89 1146.33 1740.8C1154.95 1730.1 1166.21 1725.33 1180.12 1726.48C1184.85 1726.82 1189.28 1728.09 1193.43 1730.29C1256.8 1770.79 1319.9 1811.77 1382.73 1853.22C1386.42 1856.1 1389.44 1859.51 1391.79 1863.45Z" fill="#2CE9E5"/>
<path fill-rule="evenodd" clip-rule="evenodd" d="M2049.22 1765.19C2050.91 1770.68 2052.14 1776.29 2052.89 1782.02C2051.09 1793.76 2044.53 1801.5 2033.19 1805.25C2004.18 1810.52 1975.06 1814.69 1945.82 1817.72C1945.05 1816.21 1943.81 1815.63 1942.08 1815.96C1910.15 1796.18 1878.51 1775.81 1847.19 1754.83C1823.76 1783.79 1799.82 1812.28 1775.38 1840.3C1773.08 1842.13 1770.61 1843.66 1767.95 1844.89C1741.08 1850.79 1713.93 1855.23 1686.51 1858.22C1664.84 1856.34 1654.76 1844.52 1656.29 1822.76C1661.51 1812.99 1667.66 1803.76 1674.75 1795.08C1718 1744.47 1761.01 1693.62 1803.76 1642.54C1812.38 1631.84 1823.64 1627.06 1837.54 1628.22C1842.27 1628.55 1846.7 1629.83 1850.86 1632.02C1914.23 1672.53 1977.33 1713.51 2040.16 1754.95C2043.84 1757.83 2046.87 1761.25 2049.22 1765.19Z" fill="#2CE9E5"/>
<path fill-rule="evenodd" clip-rule="evenodd" d="M2131.05 1661.41C2130.56 1664.35 2129.39 1666.84 2127.53 1668.89C2127.46 1665.77 2128.64 1663.28 2131.05 1661.41Z" fill="#22A1A2"/>
<path fill-rule="evenodd" clip-rule="evenodd" d="M895.086 1850.78C896.474 1851.85 897.64 1853.22 898.597 1854.89C900.348 1860.25 900.947 1865.57 900.402 1870.85C899.723 1863.82 897.959 1857.13 895.086 1850.78Z" fill="#25B5B5"/>
<path fill-rule="evenodd" clip-rule="evenodd" d="M2127.53 1668.89C2127.56 1675.03 2128.07 1681.13 2129.11 1687.19C2127.04 1682.31 2126.06 1677.05 2126.17 1671.41C2126.33 1670.32 2126.78 1669.49 2127.53 1668.89Z" fill="#24B1B0"/>
<path fill-rule="evenodd" clip-rule="evenodd" d="M900.116 1876.68C900.251 1879.52 899.456 1881.96 897.732 1883.99C897.597 1881.15 898.392 1878.71 900.116 1876.68Z" fill="#1C7579"/>
<path fill-rule="evenodd" clip-rule="evenodd" d="M2179.53 1714.42C2179.51 1715.14 2179.22 1715.77 2178.65 1716.29C2173.66 1717.98 2168.73 1718.53 2163.83 1717.93C2169.23 1717.38 2174.46 1716.2 2179.53 1714.42Z" fill="#1B7477"/>
<path fill-rule="evenodd" clip-rule="evenodd" d="M1391.79 1863.45C1393.94 1866.25 1395.21 1869.53 1395.58 1873.31C1395.96 1875.81 1395.91 1878.13 1395.47 1880.28C1394.72 1874.56 1393.48 1868.95 1391.79 1863.45Z" fill="#22A3A4"/>
<path fill-rule="evenodd" clip-rule="evenodd" d="M2049.22 1765.19C2051.36 1767.98 2052.63 1771.27 2053.01 1775.05C2053.38 1777.54 2053.34 1779.87 2052.89 1782.02C2052.14 1776.29 2050.91 1770.68 2049.22 1765.19Z" fill="#22A3A4"/>
<path fill-rule="evenodd" clip-rule="evenodd" d="M1284.66 1914.23C1286.38 1913.89 1287.63 1914.47 1288.4 1915.99C1286.68 1916.33 1285.43 1915.75 1284.66 1914.23Z" fill="#1C7E81"/>
<path fill-rule="evenodd" clip-rule="evenodd" d="M1942.08 1815.96C1943.81 1815.63 1945.05 1816.2 1945.82 1817.72C1944.1 1818.06 1942.86 1817.48 1942.08 1815.96Z" fill="#1C7E81"/>
<path fill-rule="evenodd" clip-rule="evenodd" d="M887.027 1982.93C881.628 1983.48 876.392 1984.66 871.327 1986.44C871.347 1985.72 871.636 1985.09 872.206 1984.57C877.193 1982.88 882.128 1982.33 887.027 1982.93Z" fill="#1B787C"/>
<path fill-rule="evenodd" clip-rule="evenodd" d="M887.027 1982.93C896.405 1983.96 904.178 1988.21 910.368 1995.67C918.829 2003.97 923.629 2014.07 924.746 2025.96C923.307 2028.51 922.569 2031.32 922.532 2034.41C919.335 2040.31 915.077 2045.39 909.745 2049.64C852.229 2098.15 794.542 2146.37 736.684 2194.29C731.436 2196.86 725.882 2198.47 720.02 2199.1C712.779 2198.26 706.353 2195.35 700.757 2190.39C696.509 2185.23 692.262 2180.07 688.014 2174.91C682.747 2166.19 681.584 2157.09 684.515 2147.62C686.034 2146.85 686.612 2145.61 686.274 2143.88C689.968 2138.67 694.283 2133.97 699.23 2129.78C756.193 2081.45 813.563 2033.67 871.327 1986.44C876.392 1984.66 881.628 1983.48 887.027 1982.93Z" fill="#2CE8E4"/>
<path fill-rule="evenodd" clip-rule="evenodd" d="M2155.77 1850.08C2154.83 1847.14 2153.3 1844.66 2151.18 1842.65C2148.92 1830.86 2150.74 1819.76 2156.64 1809.39C2158.79 1807.23 2160.34 1804.68 2161.29 1801.74C2164.93 1794.28 2171.03 1789.89 2179.6 1788.58C2183.28 1788.3 2186.95 1788.33 2190.63 1788.67C2263.23 1819.53 2335.82 1850.4 2408.42 1881.27C2419.8 1888.52 2424.25 1898.87 2421.75 1912.3C2419.15 1923.29 2414.24 1933.1 2407.03 1941.73C2399.21 1948.16 2390.32 1950.65 2380.33 1949.2C2309.13 1918.61 2237.77 1888.32 2166.28 1858.36C2162.57 1855.78 2159.06 1853.02 2155.77 1850.08Z" fill="#2CE8E4"/>
<path fill-rule="evenodd" clip-rule="evenodd" d="M2161.29 1801.74C2160.34 1804.68 2158.79 1807.23 2156.64 1809.39C2157.01 1806.02 2158.55 1803.47 2161.29 1801.74Z" fill="#209799"/>
<path fill-rule="evenodd" clip-rule="evenodd" d="M540.44 2075.29C543.762 2083.41 546.193 2091.92 547.737 2100.85C544.628 2092.69 542.195 2084.16 540.44 2075.29Z" fill="#989DA1"/>
<path fill-rule="evenodd" clip-rule="evenodd" d="M2533.12 1777.45C2534.03 1786.45 2534.2 1795.31 2533.61 1804.03C2532.48 1795.04 2532.31 1786.18 2533.12 1777.45Z" fill="#989DA1"/>
<path fill-rule="evenodd" clip-rule="evenodd" d="M924.747 2025.96C925.628 2029.3 924.889 2032.11 922.533 2034.41C922.569 2031.32 923.308 2028.51 924.747 2025.96Z" fill="#164E55"/>
<path fill-rule="evenodd" clip-rule="evenodd" d="M2151.18 1842.65C2153.3 1844.67 2154.83 1847.14 2155.77 1850.08C2152.84 1848.57 2151.32 1846.1 2151.18 1842.65Z" fill="#164E55"/>
<path fill-rule="evenodd" clip-rule="evenodd" d="M550.396 2110.89C552.811 2115.65 554.362 2120.83 555.035 2126.42C552.62 2121.66 551.069 2116.48 550.396 2110.89Z" fill="#ACB0B3"/>
<path fill-rule="evenodd" clip-rule="evenodd" d="M2534.01 1814.4C2535 1819.95 2535.03 1825.35 2534.11 1830.61C2533.12 1825.07 2533.09 1819.66 2534.01 1814.4Z" fill="#ACB0B3"/>
<path fill-rule="evenodd" clip-rule="evenodd" d="M560.012 2144.21C562.154 2146.61 563.364 2149.51 563.635 2152.94C561.787 2150.43 560.588 2147.52 560.012 2144.21Z" fill="#898E92"/>
<path fill-rule="evenodd" clip-rule="evenodd" d="M2534.55 1849.09C2534.97 1852.42 2534.67 1855.55 2533.64 1858.49C2532.9 1855.13 2533.2 1852 2534.55 1849.09Z" fill="#898E93"/>
<path fill-rule="evenodd" clip-rule="evenodd" d="M686.274 2143.88C686.612 2145.61 686.034 2146.85 684.515 2147.62C684.177 2145.9 684.755 2144.66 686.274 2143.88Z" fill="#1D8084"/>
<path fill-rule="evenodd" clip-rule="evenodd" d="M566.124 2161.84C567.878 2165.21 569.202 2168.87 570.085 2172.84C569.197 2172.48 568.519 2171.82 568.046 2170.83C567.03 2167.91 566.398 2164.92 566.124 2161.84Z" fill="#959A9E"/>
<path fill-rule="evenodd" clip-rule="evenodd" d="M2533.86 1867.73C2534.5 1870.75 2534.77 1873.79 2534.65 1876.88C2534.49 1877.97 2534.04 1878.81 2533.29 1879.4C2532.97 1875.35 2533.17 1871.46 2533.86 1867.73Z" fill="#959A9E"/>
<path fill-rule="evenodd" clip-rule="evenodd" d="M572.743 2182.87C574.527 2185.81 575.784 2189.1 576.535 2192.73C575.814 2192.71 575.191 2192.42 574.665 2191.85C573.65 2188.93 573.018 2185.95 572.743 2182.87Z" fill="#A8ACB0"/>
<path fill-rule="evenodd" clip-rule="evenodd" d="M2533.68 1889.77C2534.32 1892.8 2534.59 1895.84 2534.47 1898.93C2534.13 1899.63 2533.62 1900.08 2532.94 1900.31C2532.6 1896.62 2532.84 1893.11 2533.68 1889.77Z" fill="#A8ACB0"/>
<path fill-rule="evenodd" clip-rule="evenodd" d="M736.684 2194.29C735.612 2196.27 733.86 2197.49 731.44 2197.97C727.576 2199.49 723.773 2199.86 720.02 2199.1C725.882 2198.46 731.436 2196.86 736.684 2194.29Z" fill="#154E55"/>
<path fill-rule="evenodd" clip-rule="evenodd" d="M595.207 2247.88C597.055 2250.4 598.253 2253.3 598.829 2256.61C596.347 2254.5 595.137 2251.6 595.207 2247.88Z" fill="#AFB2B5"/>
<path fill-rule="evenodd" clip-rule="evenodd" d="M2531.21 1958.51C2532.36 1962.05 2532.05 1965.18 2530.3 1967.92C2529.88 1964.59 2530.18 1961.46 2531.21 1958.51Z" fill="#AFB2B5"/>
<path fill-rule="evenodd" clip-rule="evenodd" d="M620.277 2314.82C622.227 2316.86 623.383 2319.4 623.73 2322.42C621.78 2320.38 620.624 2317.84 620.277 2314.82Z" fill="#AAAEB1"/>
<path fill-rule="evenodd" clip-rule="evenodd" d="M2526.81 2029.86C2527.36 2032.85 2527 2035.61 2525.73 2038.13C2525.18 2035.14 2525.54 2032.38 2526.81 2029.86Z" fill="#AAAEB1"/>
<path fill-rule="evenodd" clip-rule="evenodd" d="M633.125 2346.51C635.651 2349.61 637.35 2353.22 638.219 2357.34C635.694 2354.24 633.994 2350.62 633.125 2346.51Z" fill="#B1B4B7"/>
<path fill-rule="evenodd" clip-rule="evenodd" d="M2523.79 2063.92C2524.16 2068.1 2523.59 2072.06 2522.08 2075.76C2521.71 2071.57 2522.28 2067.62 2523.79 2063.92Z" fill="#B1B4B7"/>
<path fill-rule="evenodd" clip-rule="evenodd" d="M2440.09 2155.23C2440.08 2155.95 2439.79 2156.57 2439.22 2157.09C2434.3 2159.93 2429.26 2162.42 2424.11 2164.57C2428.86 2160.66 2434.18 2157.55 2440.09 2155.23Z" fill="#B5B8BB"/>
<path fill-rule="evenodd" clip-rule="evenodd" d="M806.722 2422.54C810.347 2421.82 813.531 2422.5 816.299 2424.58C812.905 2424.36 809.72 2423.68 806.722 2422.54Z" fill="#5B6269"/>
<path fill-rule="evenodd" clip-rule="evenodd" d="M2377.91 2188.86C2375.87 2190.81 2373.33 2191.96 2370.31 2192.31C2372.35 2190.36 2374.89 2189.2 2377.91 2188.86Z" fill="#A4A7AB"/>
<path fill-rule="evenodd" clip-rule="evenodd" d="M822.135 2424.87C826.321 2424.5 830.277 2425.07 833.979 2426.57C829.793 2426.95 825.838 2426.38 822.135 2424.87Z" fill="#585F66"/>
<path fill-rule="evenodd" clip-rule="evenodd" d="M2363.85 2195.59C2361.81 2197.54 2359.28 2198.7 2356.26 2199.04C2358.29 2197.09 2360.83 2195.94 2363.85 2195.59Z" fill="#B1B4B7"/>
<path opacity="0.996" fill-rule="evenodd" clip-rule="evenodd" d="M833.979 2426.57C838.164 2426.2 842.12 2426.77 845.822 2428.28C841.636 2428.65 837.681 2428.08 833.979 2426.57Z" fill="#5B6268"/>
<path fill-rule="evenodd" clip-rule="evenodd" d="M2337.83 2207.59C2333.66 2210.66 2328.96 2212.9 2323.78 2214.33C2327.95 2211.26 2332.65 2209.02 2337.83 2207.59Z" fill="#C7C9CB"/>
<path fill-rule="evenodd" clip-rule="evenodd" d="M2297.59 2225.2C2295.55 2227.15 2293.01 2228.3 2289.99 2228.65C2292.03 2226.7 2294.57 2225.54 2297.59 2225.2Z" fill="#9CA0A4"/>
<path opacity="0.996" fill-rule="evenodd" clip-rule="evenodd" d="M907.135 2435.34C911.321 2434.97 915.276 2435.54 918.978 2437.05C914.793 2437.42 910.837 2436.85 907.135 2435.34Z" fill="#575D64"/>
<path fill-rule="evenodd" clip-rule="evenodd" d="M2280.13 2232.44C2278.09 2234.39 2275.55 2235.55 2272.54 2235.89C2274.57 2233.94 2277.11 2232.79 2280.13 2232.44Z" fill="#93979C"/>
<path fill-rule="evenodd" clip-rule="evenodd" d="M2262.67 2239.69C2260.64 2241.64 2258.1 2242.79 2255.08 2243.14C2257.12 2241.19 2259.65 2240.03 2262.67 2239.69Z" fill="#B1B4B7"/>
<path fill-rule="evenodd" clip-rule="evenodd" d="M991.457 2441.28C994.822 2440.53 997.951 2440.84 1000.86 2442.19C997.531 2442.61 994.404 2442.31 991.457 2441.28Z" fill="#7E8388"/>
<path fill-rule="evenodd" clip-rule="evenodd" d="M2190.07 2265.6C2183.03 2269.8 2175.32 2272.5 2166.94 2273.69C2174.22 2270.21 2181.93 2267.51 2190.07 2265.6Z" fill="#C2C4C7"/>
<path fill-rule="evenodd" clip-rule="evenodd" d="M2165.81 2273.86C2158.88 2277.12 2151.49 2279.39 2143.64 2280.65C2150.64 2277.58 2158.02 2275.32 2165.81 2273.86Z" fill="#BDC0C3"/>
<path fill-rule="evenodd" clip-rule="evenodd" d="M1063.43 2442.11C1070.56 2441.23 1077.53 2441.34 1084.34 2442.46C1077.21 2443.09 1070.24 2442.98 1063.43 2442.11Z" fill="#93979C"/>
<path fill-rule="evenodd" clip-rule="evenodd" d="M2132.48 2283.48C2127.72 2285.89 2122.54 2287.44 2116.95 2288.12C2121.71 2285.7 2126.89 2284.15 2132.48 2283.48Z" fill="#A2A6AA"/>
<path fill-rule="evenodd" clip-rule="evenodd" d="M1099.24 2441.39C1104.79 2440.4 1110.19 2440.37 1115.45 2441.29C1109.9 2442.08 1104.5 2442.11 1099.24 2441.39Z" fill="#7D8288"/>
<path fill-rule="evenodd" clip-rule="evenodd" d="M2096.89 2293.43C2091.71 2295.82 2086.16 2297.42 2080.22 2298.24C2085.39 2295.86 2090.95 2294.25 2096.89 2293.43Z" fill="#AEB2B5"/>
<path opacity="0.996" fill-rule="evenodd" clip-rule="evenodd" d="M1130.36 2440.22C1135.53 2439.19 1140.55 2439.21 1145.43 2440.28C1140.25 2441.13 1135.23 2441.11 1130.36 2440.22Z" fill="#6E747A"/>
<path opacity="0.98" fill-rule="evenodd" clip-rule="evenodd" d="M1153.37 2439.09C1161.62 2437.85 1169.72 2437.8 1177.68 2438.94C1169.43 2439.74 1161.33 2439.79 1153.37 2439.09Z" fill="#3E464E"/>
<path fill-rule="evenodd" clip-rule="evenodd" d="M2066.79 2301.41C2061.62 2303.79 2056.06 2305.4 2050.13 2306.22C2055.3 2303.83 2060.85 2302.23 2066.79 2301.41Z" fill="#9EA2A6"/>
<path fill-rule="evenodd" clip-rule="evenodd" d="M2038.96 2309.05C2033.79 2311.43 2028.23 2313.04 2022.3 2313.85C2027.42 2311.31 2032.98 2309.71 2038.96 2309.05Z" fill="#A6A9AD"/>
<path opacity="0.996" fill-rule="evenodd" clip-rule="evenodd" d="M1199.55 2437.99C1204.73 2436.96 1209.75 2436.98 1214.63 2438.05C1209.45 2438.68 1204.43 2438.66 1199.55 2437.99Z" fill="#646B71"/>
<path fill-rule="evenodd" clip-rule="evenodd" d="M1999.97 2319.51C1994.79 2321.89 1989.24 2323.5 1983.3 2324.32C1988.47 2321.93 1994.03 2320.33 1999.97 2319.51Z" fill="#9B9FA3"/>
<path fill-rule="evenodd" clip-rule="evenodd" d="M1230.66 2436.81C1239.29 2435.75 1247.77 2435.65 1256.11 2436.48C1247.48 2437.46 1239.01 2437.57 1230.66 2436.81Z" fill="#6C7278"/>
<path fill-rule="evenodd" clip-rule="evenodd" d="M1273.28 2435.08C1279.57 2434 1285.73 2433.84 1291.76 2434.63C1285.46 2435.71 1279.31 2435.87 1273.28 2435.08Z" fill="#777D82"/>
<path fill-rule="evenodd" clip-rule="evenodd" d="M1320.43 2432.66C1327.47 2431.48 1334.39 2431.22 1341.17 2431.88C1334.13 2433.06 1327.22 2433.33 1320.43 2432.66Z" fill="#898E92"/>
<path fill-rule="evenodd" clip-rule="evenodd" d="M1892.84 2347.11C1884.71 2350.29 1876.13 2352.34 1867.11 2353.27C1875.37 2350.58 1883.95 2348.52 1892.84 2347.11Z" fill="#ACAFB3"/>
<path fill-rule="evenodd" clip-rule="evenodd" d="M1365.15 2429.46C1373.71 2428.43 1382.13 2427.94 1390.42 2428C1381.9 2429.67 1373.48 2430.16 1365.15 2429.46Z" fill="#787E83"/>
<path fill-rule="evenodd" clip-rule="evenodd" d="M1433.83 2423.83C1457.12 2420.62 1480.28 2417.93 1503.32 2415.76C1480.11 2419.56 1456.94 2422.25 1433.83 2423.83Z" fill="#84898F"/>
</g>
<defs>
<clipPath id="clip0_2033_801">
<rect width="3000" height="3000" fill="white"/>
</clipPath>
</defs>
</svg>
